<svg width="80" height="80" viewBox="0 0 80 80" fill="none" xmlns="http://www.w3.org/2000/svg">
<g clip-path="url(#clip0_3920_3535)">
<path d="M79.859 78.04L41.1933 0.708623C40.74 -0.195355 39.26 -0.195355 38.8067 0.708623L0.140994 78.04C-0.0656675 78.4534 -0.0443347 78.944 0.199659 79.3373C0.443653 79.7293 0.871642 79.9693 1.3343 79.9693H78.6657C79.1284 79.9693 79.5563 79.7293 79.8003 79.3373C80.0443 78.944 80.0657 78.4534 79.859 78.04ZM40 4.28587L45.8425 15.9709H34.1575L40 4.28587ZM32.8242 18.6375H47.1758L51.8424 27.9706H28.1576L32.8242 18.6375ZM26.8243 30.6372H53.1757L57.8422 39.9703H22.1578L26.8243 30.6372ZM20.8245 42.6369H59.1755L63.8421 51.97H16.1579L20.8245 42.6369ZM14.8246 54.6366H65.1754L69.8419 63.9697H10.1581L14.8246 54.6366ZM3.49158 77.3027L8.82478 66.6363H71.1752L76.5084 77.3027H3.49158Z" fill="#DAB16E"/>
</g>
<defs>
<clipPath id="clip0_3920_3535">
<rect width="80" height="80" fill="white"/>
</clipPath>
</defs>
</svg>
