<svg width="80" height="80" viewBox="0 0 80 80" fill="none" xmlns="http://www.w3.org/2000/svg">
<g clip-path="url(#clip0_3920_3537)">
<path d="M40 0V2.66667C60.5853 2.66667 77.3333 19.4147 77.3333 40C77.3333 60.5853 60.5853 77.3333 40 77.3333C19.4147 77.3333 2.66667 60.5853 2.66667 40C2.66667 28.0947 8.44267 16.7947 18.1173 9.77067L16.5493 7.612C6.188 15.136 0 27.244 0 40C0 62.056 17.944 80 40 80C62.056 80 80 62.056 80 40C80 17.944 62.056 0 40 0Z" fill="#DAB16E"/>
<path d="M40 8V10.6667C56.1747 10.6667 69.3333 23.8253 69.3333 40C69.3333 56.1747 56.1747 69.3333 40 69.3333C23.8253 69.3333 10.6667 56.1747 10.6667 40C10.6667 36.4907 11.2827 33.0587 12.496 29.7987L9.996 28.868C8.672 32.4267 8 36.172 8 40C8 57.644 22.356 72 40 72C57.644 72 72 57.644 72 40C72 22.356 57.644 8 40 8Z" fill="#DAB16E"/>
<path d="M39.9997 16V18.6667C51.7624 18.6667 61.333 28.2373 61.333 40C61.333 51.7627 51.7624 61.3333 39.9997 61.3333C29.6517 61.3333 20.8197 53.9453 18.9984 43.7667L16.373 44.236C18.4224 55.688 28.3597 64 39.9997 64C53.233 64 63.9997 53.2333 63.9997 40C63.9997 26.7667 53.233 16 39.9997 16Z" fill="#DAB16E"/>
<path d="M40 24V26.6667C47.352 26.6667 53.3334 32.648 53.3334 40C53.3334 47.352 47.352 53.3333 40 53.3333C36.9107 53.3333 33.8987 52.2493 31.5187 50.2787L29.8174 52.3333C32.676 54.6973 36.292 56 40 56C48.8227 56 56 48.8227 56 40C56 31.1773 48.8227 24 40 24Z" fill="#DAB16E"/>
<path d="M40 32C35.588 32 32 35.588 32 40C32 44.412 35.588 48 40 48C44.412 48 48 44.412 48 40C48 35.588 44.412 32 40 32ZM40 45.3333C37.0587 45.3333 34.6667 42.9413 34.6667 40C34.6667 37.0587 37.0587 34.6667 40 34.6667C42.9413 34.6667 45.3333 37.0587 45.3333 40C45.3333 42.9413 42.9413 45.3333 40 45.3333Z" fill="#DAB16E"/>
</g>
<defs>
<clipPath id="clip0_3920_3537">
<rect width="80" height="80" fill="white"/>
</clipPath>
</defs>
</svg>
