<svg width="80" height="80" viewBox="0 0 80 80" fill="none" xmlns="http://www.w3.org/2000/svg">
<g clip-path="url(#clip0_3920_3536)">
<path d="M66.416 30.1227C66.564 28.988 66.6667 27.84 66.6667 26.6667C66.6667 11.9627 54.704 0 40 0C25.296 0 13.3333 11.9627 13.3333 26.6667C13.3333 27.84 13.436 28.988 13.584 30.1227C5.48667 34.7053 0 43.384 0 53.3333C0 68.0373 11.9627 80 26.6667 80C31.5267 80 36.072 78.672 40 76.392C43.928 78.672 48.4733 80 53.3333 80C68.0373 80 80 68.0373 80 53.3333C80 43.384 74.5133 34.7053 66.416 30.1227ZM40 2.66667C53.2333 2.66667 64 13.4333 64 26.6667C64 27.4053 63.9547 28.1333 63.8893 28.8547C60.6493 27.452 57.0827 26.6667 53.3333 26.6667C48.4733 26.6667 43.928 27.9947 40 30.2747C36.072 27.9947 31.5267 26.6667 26.6667 26.6667C22.9173 26.6667 19.3507 27.452 16.1107 28.8547C16.0453 28.1333 16 27.4053 16 26.6667C16 13.4333 26.7667 2.66667 40 2.66667ZM40 33.392C45.1133 36.8213 48.8373 42.1627 50.148 48.3853C47.06 49.8333 43.6293 50.6667 40 50.6667C36.3707 50.6667 32.94 49.8333 29.852 48.384C31.1627 42.1627 34.8867 36.8213 40 33.392ZM27.4387 47.0773C21.9373 43.6787 17.8933 38.1413 16.5187 31.6147C19.6067 30.1667 23.0373 29.3333 26.6667 29.3333C30.56 29.3333 34.228 30.2853 37.484 31.9387C32.548 35.6053 28.9267 40.9213 27.4387 47.0773ZM42.516 31.9387C45.772 30.2853 49.44 29.3333 53.3333 29.3333C56.9627 29.3333 60.3933 30.1667 63.4813 31.616C62.1067 38.1413 58.064 43.6787 52.5613 47.0787C51.0733 40.9213 47.452 35.6053 42.516 31.9387ZM26.6667 77.3333C13.4333 77.3333 2.66667 66.5667 2.66667 53.3333C2.66667 44.708 7.256 37.1533 14.1053 32.9227C15.86 40.1827 20.576 46.2893 26.9173 49.8773C26.7693 51.012 26.6667 52.16 26.6667 53.3333C26.6667 62.0973 30.936 69.864 37.484 74.728C34.228 76.3813 30.56 77.3333 26.6667 77.3333ZM29.3333 53.3333C29.3333 52.5947 29.3787 51.8667 29.444 51.1453C32.684 52.548 36.2507 53.3333 40 53.3333C43.7493 53.3333 47.316 52.548 50.556 51.1453C50.6213 51.8667 50.6667 52.5947 50.6667 53.3333C50.6667 61.636 46.4267 68.964 40 73.2747C33.5733 68.964 29.3333 61.636 29.3333 53.3333ZM53.3333 77.3333C49.44 77.3333 45.772 76.3813 42.516 74.728C49.064 69.864 53.3333 62.0973 53.3333 53.3333C53.3333 52.16 53.2307 51.012 53.0827 49.8773C59.424 46.288 64.14 40.1827 65.8947 32.9227C72.744 37.1533 77.3333 44.708 77.3333 53.3333C77.3333 66.5667 66.5667 77.3333 53.3333 77.3333Z" fill="#DAB16E"/>
</g>
<defs>
<clipPath id="clip0_3920_3536">
<rect width="80" height="80" fill="white"/>
</clipPath>
</defs>
</svg>
