<svg width="80" height="80" viewBox="0 0 80 80" fill="none" xmlns="http://www.w3.org/2000/svg">
<g clip-path="url(#clip0_3875_3584)">
<path d="M79.859 78.04L41.1927 0.707322C40.7393 -0.196671 39.2607 -0.196671 38.8073 0.707322L0.140996 78.04C-0.0656685 78.4533 -0.0443354 78.944 0.199663 79.3373C0.44366 79.7307 0.870324 79.9707 1.33299 79.9707H78.6657C79.1283 79.9707 79.5563 79.7307 79.8003 79.3373C80.0443 78.944 80.0657 78.4533 79.859 78.04ZM39.9993 4.28596L56.5085 37.3044H23.4901L39.9993 4.28596ZM3.4903 77.304L21.2915 41.7017L37.906 77.304H3.4903ZM23.4261 39.971H56.5725L39.9993 75.4854L23.4261 39.971ZM42.0926 77.304L58.7072 41.7017L76.5084 77.304H42.0926Z" fill="#DAB16E"/>
</g>
<defs>
<clipPath id="clip0_3875_3584">
<rect width="80" height="80" fill="white"/>
</clipPath>
</defs>
</svg>
