<svg width="80" height="80" viewBox="0 0 80 80" fill="none" xmlns="http://www.w3.org/2000/svg">
<g clip-path="url(#clip0_3875_3585)">
<path d="M40 0C17.944 0 0 17.944 0 40C0 62.056 17.944 80 40 80C62.056 80 80 62.056 80 40C80 17.944 62.056 0 40 0ZM40 77.3333C32.648 77.3333 26.6667 71.352 26.6667 64C26.6667 56.648 32.648 50.6667 40 50.6667C47.352 50.6667 53.3333 56.648 53.3333 64C53.3333 71.352 47.352 77.3333 40 77.3333ZM53.5547 72.4613C55.0947 70.0027 56 67.108 56 64C56 55.1773 48.8227 48 40 48C31.1773 48 24 55.1773 24 64C24 67.108 24.9053 70.0027 26.4453 72.4613C21.6973 68.5453 18.6667 62.62 18.6667 56C18.6667 44.2373 28.2373 34.6667 40 34.6667C51.7627 34.6667 61.3333 44.2373 61.3333 56C61.3333 62.62 58.3027 68.5453 53.5547 72.4613ZM59.6053 69.7973C62.364 65.8893 64 61.136 64 56C64 42.7667 53.2333 32 40 32C26.7667 32 16 42.7667 16 56C16 61.136 17.636 65.8893 20.3947 69.7973C14.4267 64.424 10.6667 56.644 10.6667 48C10.6667 31.8253 23.8253 18.6667 40 18.6667C56.1747 18.6667 69.3333 31.8253 69.3333 48C69.3333 56.644 65.5733 64.424 59.6053 69.7973ZM65.7013 67.0387C69.656 61.7147 72 55.1267 72 48C72 30.356 57.644 16 40 16C22.356 16 8 30.356 8 48C8 55.1267 10.344 61.7147 14.2987 67.0387C7.14133 60.2333 2.66667 50.632 2.66667 40C2.66667 19.4147 19.4147 2.66667 40 2.66667C60.5853 2.66667 77.3333 19.4147 77.3333 40C77.3333 50.632 72.8587 60.2333 65.7013 67.0387Z" fill="#DAB16E"/>
</g>
<defs>
<clipPath id="clip0_3875_3585">
<rect width="80" height="80" fill="white"/>
</clipPath>
</defs>
</svg>
