<svg width="80" height="80" viewBox="0 0 80 80" fill="none" xmlns="http://www.w3.org/2000/svg">
<path d="M76 25.3333V34.1147L70.6667 39.448L65.3334 34.1147V25.3333H62.6667V34.6667C62.6667 35.0213 62.8067 35.36 63.0574 35.6093L69.3334 41.8853V44.7813L40 74.1147V55.2187L56.9427 38.276C57.1934 38.0267 57.3334 37.688 57.3334 37.3333V24.552L67.6094 14.276C67.86 14.0267 68 13.688 68 13.3333V0H65.3334V12.7813L56 22.1147L46.6667 12.7813V0H44V13.3333C44 13.688 44.14 14.0267 44.3907 14.276L54.6667 24.552V36.7813L40 51.448V36C40 35.6453 39.86 35.3067 39.6094 35.0573L25.3334 20.7813V11.2187L28.9427 7.60933C29.1934 7.36 29.3334 7.02133 29.3334 6.66667V0H26.6667V6.11467L24 8.78133L21.3334 6.11467V0H18.6667V6.66667C18.6667 7.02133 18.8067 7.36 19.0574 7.60933L22.6667 11.2187V21.3333C22.6667 21.688 22.8067 22.0267 23.0574 22.276L37.3334 36.552V63.448L21.3334 47.448V32H18.6667V44.7813L9.33337 35.448V29.8853L14.276 24.9427C14.5267 24.6933 14.6667 24.3547 14.6667 24V17.3333H12V23.448L8.00004 27.448L4.00004 23.448V17.3333H1.33337V24C1.33337 24.3547 1.47337 24.6933 1.72404 24.9427L6.66671 29.8853V36C6.66671 36.3547 6.80671 36.6933 7.05737 36.9427L19.0574 48.9427L37.3334 67.2187V80H40V77.8853L71.6094 46.276C71.86 46.0267 72 45.688 72 45.3333V41.8853L78.276 35.6093C78.5267 35.36 78.6667 35.0213 78.6667 34.6667V25.3333H76Z" fill="#DAB16E"/>
</svg>
