<svg width="80" height="80" viewBox="0 0 80 80" fill="none" xmlns="http://www.w3.org/2000/svg">
<path d="M49.4211 26.8567C47.9097 27.8645 43.1235 30.6002 42.4038 31.1401C41.0003 32.2559 39.7048 32.1839 38.3013 31.1041C37.5816 30.5282 32.7954 27.7926 31.284 26.8207C29.5567 25.7049 29.6646 24.3011 31.5719 23.5092C37.4736 21.0255 43.3754 21.2055 49.2411 23.6172C51.0045 24.3731 51.0764 25.7769 49.4211 26.8567ZM75.4031 53.0609C72.0564 45.538 67.4862 38.699 61.5844 32.6879C59.7584 30.7932 58.4456 28.4642 57.7699 25.9208C57.41 24.733 57.1581 23.5092 56.9062 22.2854C56.1865 19.1178 55.8626 15.8783 54.3872 12.8907C51.7602 7.20354 47.1899 4.25196 40.5685 4C34.055 4.17997 29.1968 6.91558 26.3539 12.6388C25.5982 14.1865 25.0584 15.8063 24.6985 17.4621C24.0868 20.1977 23.547 23.0412 22.8992 25.8128C22.3594 28.1525 21.2798 30.1682 19.4445 31.968C13.6508 37.6191 9.00854 44.0982 5.48189 51.2252C4.97809 52.269 4.47428 53.3129 4.1504 54.3927C3.46667 56.7684 5.194 58.4241 7.71304 57.8482C9.29643 57.5243 10.8798 57.2003 12.3912 56.7324C13.8667 56.1924 14.4425 56.5524 14.8023 57.9922C17.1414 65.7311 22.2515 71.1663 30.0605 74.1898C44.8868 79.805 62.1962 71.8142 65.9387 57.7042C66.1906 56.7324 66.5505 56.3724 67.6301 56.7324C69.2855 57.2363 70.9768 57.5962 72.6682 57.9922C74.4315 58.3161 75.727 57.4163 75.9789 55.6885C76.0869 54.7527 75.763 53.9248 75.4031 53.0609Z" fill="#DAB16E"/>
</svg>
