<svg width="80" height="80" viewBox="0 0 80 80" fill="none" xmlns="http://www.w3.org/2000/svg">
<path d="M72 57.2942C70.2498 61.1445 69.4127 62.8661 67.1649 66.2685C64.0244 71.0204 59.5903 76.95 54.1083 76.9907C49.2323 77.0314 47.9737 73.8296 41.3562 73.8819C34.7386 73.9139 33.3601 77.0489 28.4782 76.9994C22.9962 76.95 18.7992 71.6078 15.6558 66.8647C6.86652 53.5602 5.93872 37.9669 11.3709 29.6701C15.2138 23.7871 21.2957 20.3323 27.006 20.3323C32.8216 20.3323 36.4772 23.5079 41.2859 23.5079C45.9513 23.5079 48.7932 20.3235 55.5191 20.3235C60.6059 20.3235 65.9854 23.0775 69.8283 27.8293C57.2547 34.675 59.2976 52.5191 72 57.2942ZM50.4147 15.0133C52.8615 11.893 54.7171 7.4901 54.0439 3C50.0518 3.27045 45.3835 5.8034 42.6557 9.08374C40.1855 12.0704 38.1367 16.5081 38.9357 20.8005C43.2908 20.94 47.7981 18.3606 50.4147 15.0133Z" fill="#DAB16E"/>
</svg>
