<svg width="256" height="256" viewBox="0 0 256 256" fill="none" xmlns="http://www.w3.org/2000/svg">
<path fill-rule="evenodd" clip-rule="evenodd" d="M128.39 8.97643C62.44 8.97643 8.97644 62.44 8.97644 128.39C8.97644 194.341 62.44 247.804 128.39 247.804C194.341 247.804 247.804 194.341 247.804 128.39C247.804 62.44 194.341 8.97643 128.39 8.97643ZM5.85449 128.39C5.85449 60.7158 60.7158 5.85448 128.39 5.85448C196.066 5.85448 250.926 60.7158 250.926 128.39C250.926 196.066 196.066 250.926 128.39 250.926C60.7158 250.926 5.85449 196.066 5.85449 128.39Z" fill="#D9B16D"/>
<path d="M137.215 182.427C137.224 182.424 137.234 182.423 137.253 182.422H137.254C137.258 182.422 137.262 182.422 137.266 182.421C137.269 182.421 137.272 182.42 137.275 182.42C137.287 182.419 137.302 182.418 137.321 182.415L137.465 182.42L137.57 182.473C137.665 182.6 137.57 182.696 137.347 182.696C137.126 182.696 137.031 182.6 137.126 182.473C137.134 182.469 137.141 182.465 137.148 182.461C137.155 182.457 137.161 182.454 137.166 182.451C137.171 182.449 137.175 182.447 137.179 182.444C137.197 182.435 137.205 182.43 137.215 182.427ZM137.126 182.473C137.134 182.469 137.141 182.465 137.148 182.461C137.155 182.457 137.161 182.454 137.166 182.451C137.171 182.449 137.175 182.447 137.179 182.444C137.197 182.435 137.205 182.43 137.215 182.427C137.224 182.424 137.234 182.423 137.253 182.422H137.254L137.266 182.421C137.269 182.421 137.272 182.42 137.275 182.42C137.287 182.419 137.302 182.418 137.321 182.415L137.465 182.42L137.57 182.473C137.665 182.6 137.57 182.696 137.347 182.696C137.126 182.696 137.031 182.6 137.126 182.473ZM95.0536 112.647L94.9241 112.695C94.7656 112.79 92.7338 113.075 90.3842 113.329C80.4795 114.377 73.6222 118.25 69.8762 124.949C68.6062 127.234 67.8124 130.854 68.0981 133.107C68.3526 135.171 69.0192 136.822 69.749 137.266C70.5428 137.711 70.8605 137.679 71.6856 137.108C72.3842 136.632 72.4154 136.472 72.225 134.028C71.8128 128.885 73.495 124.187 76.924 120.79C79.5585 118.155 83.8126 116.06 89.2095 114.758C94.2895 113.488 95.2417 113.203 95.2417 112.822C95.2074 112.651 95.255 112.721 95.0536 112.647ZM90.0018 115.427C89.172 115.519 88.3828 115.807 87.5906 116.06C84.384 117.107 80.7332 119.202 78.4157 121.329C74.416 125.044 72.4154 130.917 74.4793 132.98C74.733 133.266 75.3043 133.488 75.7173 133.488C76.7336 133.488 77.3682 132.218 77.7811 129.457C78.3205 125.552 81.3998 120.663 84.5744 118.631C85.305 118.187 86.956 117.266 88.2572 116.599C88.6896 116.379 89.012 116.221 89.4499 115.967L89.4585 115.962C89.5506 115.909 90.0377 115.629 90.0884 115.498C90.1017 115.463 90.0306 115.45 90.0018 115.427ZM87.2573 118.184C86.3846 118.361 85.6438 119.273 84.8921 119.71C82.7331 121.361 82.0032 122.25 80.9237 124.441C79.9394 126.44 79.7489 128.028 80.3843 128.663C80.8917 129.171 81.7495 129.139 82.1617 128.663C82.3209 128.441 82.7971 127.107 83.146 125.711C83.9078 122.948 84.5432 121.742 86.4798 119.393C86.7132 119.108 87.2666 118.543 87.2573 118.184ZM72.7011 138.567C71.9081 138.567 70.7965 139.647 70.7965 140.409C70.7965 141.075 71.3999 141.933 72.0665 142.155C72.3202 142.25 72.7331 142.345 72.9556 142.345C73.527 142.377 74.6065 141.203 74.6065 140.473C74.6065 140.123 74.3208 139.552 73.9711 139.203C73.6222 138.854 73.0508 138.567 72.7011 138.567ZM75.7227 142.749L75.4316 142.758C74.6065 142.886 74.384 143.965 75.0827 144.472C75.7173 144.949 76.3839 144.758 76.6383 144.06C76.8194 143.302 76.4268 142.936 75.7227 142.749ZM78.6405 144.032C78.5031 144.074 78.3447 144.071 78.2284 144.156C77.8849 144.404 77.938 144.848 78.162 145.139C78.3525 145.394 78.6702 145.52 78.8599 145.457C79.432 145.266 79.4632 144.282 78.8919 144.092L78.6405 144.032ZM66.3153 147.523C66.1662 147.672 66.2333 147.573 66.3488 147.977C66.5916 148.823 66.9163 149.644 67.209 150.473C70.6381 159.965 78.6382 168.822 88.2892 173.934C92.0672 175.933 94.3839 176.823 97.2096 177.457C102.766 178.664 107.337 177.299 108.289 174.155C108.988 171.807 107.305 168.918 105.305 169.108C104.416 169.203 104.289 169.299 104.289 170.156C104.289 170.95 104.448 171.14 105.242 171.266C106.416 171.458 106.702 172.759 105.781 173.584C105.178 174.124 105.082 174.092 103.146 172.696C99.1462 169.838 97.432 169.425 95.4634 170.759L94.3207 171.552L94.2254 170.695C94.1302 169.965 93.9718 169.838 93.0195 169.743C91.1461 169.616 87.2729 168.695 85.7492 168.029C84.9553 167.68 83.9398 167.267 83.5269 167.108C82.0352 166.536 83.0508 166.568 85.241 167.172C90.353 168.569 94.5431 168.219 98.0986 166.06C100.035 164.886 101.781 162.664 102.098 160.918C102.353 159.584 101.813 158.25 100.988 158.029C100.607 157.933 100.257 157.298 99.908 156.028C99.3366 154.028 98.2259 152.473 96.7974 151.743C95.7811 151.203 94.4159 151.108 94.1302 151.584C94.0038 151.775 93.6861 151.743 93.2419 151.457C91.591 150.409 87.9395 150.473 86.575 151.584C85.9077 152.156 85.9077 152.219 86.4158 153.139C86.924 154.06 86.924 154.092 86.3206 154.283C85.9717 154.409 85.0826 155.108 84.3207 155.87C82.7971 157.425 82.8923 157.933 84.6697 157.933C85.5907 157.933 85.718 158.029 85.7172 158.726C85.718 160.981 87.5906 162.949 88.9238 162.124C89.3999 161.807 89.7176 161.87 90.5427 162.378C94.099 164.536 98.4163 160.441 95.5907 157.584C94.3839 156.378 92.3841 156.283 91.6222 157.362C90.9236 158.346 90.9556 160.029 91.6542 160.441C92.5745 160.949 91.9719 161.076 90.8924 160.632C89.5272 160.061 88.7013 158.441 89.1783 157.203C89.5904 156.155 91.2733 155.076 92.5433 155.076C94.035 155.108 96.0988 156.187 96.8287 157.362C97.6225 158.663 97.6225 159.616 96.8607 161.33C95.6227 163.997 92.0984 165.521 88.1299 165.108C79.0823 164.092 72.225 159.044 67.6859 149.997C67.259 149.157 66.8609 148.292 66.3153 147.523ZM68.2971 149.46C68.326 150.094 68.8084 150.655 69.0192 151.235C71.9713 157.044 77.5586 161.584 83.3364 162.854C86.0349 163.457 86.2253 163.457 85.654 162.79C85.3683 162.473 84.7969 161.584 84.3527 160.79C83.3052 158.918 82.4474 158.314 80.1618 157.933C75.4956 157.108 71.4951 154.409 68.9872 150.345C68.7928 150.042 68.6109 149.644 68.2971 149.46ZM88.3524 186.442C88.3173 186.418 88.2822 186.395 88.2462 186.371C88.2189 186.353 88.1908 186.334 88.1635 186.316C87.8169 186.083 87.4696 185.851 87.0933 185.67C86.9653 185.723 87.1441 185.869 87.4032 186.082H87.4048C87.475 186.139 87.5508 186.201 87.628 186.267C88.2408 186.792 88.8762 187.288 89.5116 187.784L89.6224 187.87C100.003 195.997 114.744 200.505 128.458 201.743C135.093 202.347 145.412 201.394 150.268 199.743C152.395 199.045 152.745 198.728 153.031 197.299C153.157 196.727 153.539 196.346 154.301 196.093C156.364 195.331 157.983 192.759 157.983 190.22C157.983 189.203 158.396 188.251 159.38 187.171L160.047 186.41L158.428 186.6C157.285 186.727 155.316 187.521 151.761 189.298C142.776 193.807 137.315 195.331 128.554 195.902C116.839 196.632 96.9879 192.347 88.3524 186.442ZM174.999 177.013C174.866 176.982 174.77 176.958 174.699 176.941C174.588 176.915 174.533 176.901 174.478 176.891C174.426 176.882 174.373 176.875 174.27 176.862C174.185 176.851 174.064 176.837 173.88 176.812C173.717 176.821 173.687 176.812 173.66 176.816C173.642 176.819 173.625 176.829 173.571 176.854C173.476 176.981 174.491 178.061 175.824 179.331C178.237 181.553 179.253 183.235 179.253 185.013C179.253 185.616 179.285 185.616 179.888 185.076C180.682 184.378 180.999 182.664 180.555 181.774C180.206 181.172 180.269 181.108 180.999 181.108C181.444 181.108 182.523 180.759 183.38 180.315C184.237 179.87 185.38 179.521 185.92 179.521C187.126 179.521 187.126 179.076 185.92 177.87L184.967 176.918L180.587 177.14C177.73 177.299 175.793 177.267 174.999 177.013ZM189.267 169.085C187.883 169.127 186.693 169.927 185.546 170.697C185.203 170.928 184.863 171.157 184.523 171.362C180.967 173.743 178.618 174.759 175.317 175.235C174.301 175.394 173.92 175.553 174.205 175.743C175.285 176.442 181.38 175.775 184.713 174.6C188.459 173.298 190.967 171.045 190.174 169.743C189.937 169.412 189.691 169.158 189.267 169.085ZM192.523 161.615C192.439 161.592 192.372 161.573 192.319 161.558C192.195 161.522 192.139 161.505 192.082 161.497C192.034 161.489 191.986 161.487 191.897 161.483C191.796 161.477 191.641 161.47 191.375 161.449C188.843 161.978 186.94 164.128 185.172 166.128C184.63 166.74 184.101 167.337 183.571 167.87C180.809 170.95 179.634 171.838 176.079 173.393C173.412 174.568 173.444 174.632 176.428 173.997C179.126 173.425 181.571 172.156 184.967 169.648C186.46 168.537 188.968 166.759 190.523 165.679C193.031 163.997 193.38 163.647 193.38 162.854C193.38 162.124 193.19 161.838 192.523 161.615ZM196.524 155.838C196.271 155.784 196.198 155.766 196.124 155.755C196.081 155.749 196.037 155.745 195.958 155.738C195.863 155.729 195.716 155.717 195.456 155.689C195.399 155.691 195.342 155.692 195.284 155.693C195.265 155.693 195.246 155.693 195.227 155.694C195.168 155.695 195.108 155.695 195.049 155.695C194.778 155.696 194.506 155.698 194.238 155.731C192.813 155.91 191.412 156.301 190.174 157.044C188.015 158.346 184.46 161.997 182.078 165.393C180.015 168.314 177.126 171.266 175.19 172.41C174.46 172.854 173.856 173.267 173.856 173.362C173.856 173.425 174.396 173.267 175.062 173.013C178.015 171.775 179.92 170.283 184.365 165.806C187.126 163.013 189.444 160.918 190.142 160.632C190.777 160.377 192.396 160.029 193.793 159.87C195.158 159.743 196.587 159.425 196.968 159.235C198.396 158.473 198.11 156.219 196.524 155.838ZM88.8918 188.759C88.8332 188.709 88.7739 188.659 88.7154 188.609C88.3282 188.281 87.9387 187.95 87.5055 187.683C87.4727 187.747 87.4563 187.774 87.461 187.796C87.4649 187.814 87.4821 187.829 87.5164 187.858C87.5593 187.894 87.6288 187.953 87.7303 188.068C88.3969 188.829 89.1283 189.529 89.8581 190.23H89.8589C90.1626 190.522 90.4662 190.813 90.7652 191.109C96.8607 197.013 102.479 201.109 107.242 203.172C109.369 204.093 114.172 204.22 114.172 203.457C114.172 202.283 108.512 200.537 99.4319 195.616C94.9241 193.172 91.4005 190.886 88.8918 188.759ZM92.3841 194.474C92.0835 194.174 91.783 193.871 91.4817 193.568C89.9487 192.023 88.3985 190.461 86.6718 189.159L86.6695 189.203C87.7178 191.966 90.9236 197.045 93.1459 199.49C93.8765 200.251 95.0825 201.299 95.8444 201.807C96.6382 202.283 97.432 202.695 97.6545 202.695C98.2571 202.695 98.7973 201.807 98.5748 201.141C98.4796 200.791 95.6859 197.807 92.3841 194.474ZM85.2098 189.14C84.9241 189.426 85.8132 194.41 86.543 196.664C87.3049 199.14 87.9083 199.998 89.051 200.219C90.8284 200.6 90.8284 198.981 89.019 196.188C88.4156 195.203 87.3049 193.172 86.6063 191.711C85.8764 190.22 85.273 189.077 85.2098 189.14ZM82.5426 196.346C82.1937 196.346 81.7808 196.061 81.5903 195.744C81.3023 195.124 81.3749 194.309 82.0703 194.002C82.1414 193.97 82.2179 193.955 82.2944 193.938C82.3217 193.933 82.349 193.927 82.3763 193.92C82.3873 193.918 82.3982 193.916 82.4083 193.912C82.5371 193.921 82.6136 193.923 82.6644 193.925C82.7104 193.926 82.7354 193.927 82.7596 193.931C82.7885 193.936 82.8166 193.944 82.8782 193.964L82.9087 193.973C82.9282 193.98 82.9508 193.987 82.9766 193.994L82.9875 193.997C84.0983 194.41 83.7174 196.346 82.5426 196.346ZM80.7965 189.362C80.1619 189.362 78.7334 190.759 78.7334 191.362C78.7334 191.617 79.0191 192.187 79.4 192.664C79.7489 193.108 80.3523 193.489 80.7332 193.489C81.5591 193.489 82.8603 192.283 82.8603 191.521C82.8603 190.791 81.4951 189.362 80.7965 189.362ZM84.711 197.041C84.5573 197.06 84.4659 197.066 84.405 197.069C84.3504 197.073 84.3207 197.075 84.2934 197.084C84.2622 197.094 84.2341 197.114 84.1724 197.16C84.1451 197.18 84.1108 197.205 84.0671 197.235C83.8126 197.49 83.8126 197.743 84.1303 198.092C84.6384 198.696 85.2098 198.569 85.3363 197.839C85.3394 197.356 85.1645 197.199 84.711 197.041ZM58.2355 162.408C58.1169 162.363 58.0841 162.347 58.0482 162.34C58.0045 162.332 57.9577 162.339 57.7422 162.324C57.4362 162.376 57.245 162.539 57.085 162.79C56.8734 163.213 57.0444 163.728 57.4675 163.941C57.8905 164.153 58.4057 163.982 58.618 163.559L58.6797 163.397C58.7585 162.965 58.6001 162.64 58.2355 162.408ZM58.6797 152.183C57.5104 149.78 57.0537 147.596 56.5753 145.876C55.9063 148.264 56.3528 152.09 56.9577 154.285C57.5635 156.48 58.5743 159.394 59.0817 161.044C59.5898 162.695 60.0028 164.473 60.0028 164.981C60.0028 165.774 59.9075 165.87 59.3674 165.711C57.8437 165.235 57.2411 167.298 58.4471 168.854C59.1769 169.775 59.9395 169.902 61.2407 169.203C62.3523 168.632 62.9237 167.172 62.7012 165.425C62.5427 164.283 62.574 164.219 62.8917 164.917C63.1141 165.393 63.1774 166.695 63.0821 168.251C62.9869 169.648 63.0501 171.394 63.2406 172.155C63.812 174.441 66.2567 176.029 69.2729 176.029C70.8918 176.029 71.9713 176.6 72.7331 177.838C73.1141 178.441 73.4637 178.854 73.5582 178.79C73.9079 178.441 71.5904 174.219 68.7335 169.997C65.114 164.632 62.1751 159.366 58.6797 152.183ZM125.001 51.841C125.16 51.841 125.288 52.0978 125.288 52.4147C125.288 52.7317 125.16 52.9885 125.001 52.9885C124.843 52.9885 124.715 52.7317 124.715 52.4147C124.715 52.0978 124.843 51.841 125.001 51.841ZM89.7543 85.5673L90.3522 85.5891C94.5829 85.8553 98.4405 88.2423 100.003 92.377C101.781 97.2017 99.4319 102.885 94.9873 104.472C93.5588 104.98 90.4475 105.043 88.7966 104.567C86.4158 103.901 84.3207 101.297 83.9398 98.4717C83.4637 95.1066 86.8607 91.7416 88.6701 93.7414C89.3999 94.5353 89.3687 94.5993 88.0347 94.5993C87.0512 94.5993 86.7655 94.7577 86.4158 95.4563C85.8764 96.6311 86.3206 97.4562 87.781 97.9323C90.1306 98.6942 92.7018 96.4086 92.7018 93.551C92.7018 91.6151 90.9876 89.9954 88.9238 89.9954C88.2892 89.9954 87.9715 89.805 87.8443 89.3608C87.749 89.0432 87.3049 88.6622 86.8607 88.535C85.5587 88.2181 83.8126 89.3288 82.7018 91.1702C81.8448 92.5987 81.6535 92.7259 81.0189 92.4402C80.0346 91.9961 78.8919 92.5674 78.2252 93.8687C77.4002 95.4243 77.4954 98.8214 78.3845 100.313C79.2095 101.71 79.2095 101.71 78.4477 101.52C78.13 101.425 77.5586 101.52 77.1777 101.71C75.4636 102.631 77.4002 105.615 80.1618 106.313C81.0189 106.536 81.7808 106.885 81.8448 107.075C82.0664 107.742 80.2891 107.869 78.5742 107.33C75.4316 106.345 72.5107 106.98 70.4476 109.139C69.0824 110.535 68.8599 111.425 69.8442 111.742C70.7333 112.028 70.6381 112.282 69.1776 113.171C67.0186 114.504 65.0819 118.123 64.6058 121.584C64.5106 122.473 64.3521 123.647 64.2569 124.218C64.1617 124.758 63.9712 125.234 63.844 125.234C63.0821 125.234 62.9549 119.901 63.6535 115.964C65.4629 105.584 73.3365 93.0748 81.1462 88.1541C83.4122 86.8372 85.9225 85.8405 88.5538 85.6149C88.9527 85.5805 89.3539 85.5829 89.7543 85.5673ZM137.321 182.415L137.465 182.42L137.57 182.473C137.665 182.6 137.57 182.696 137.347 182.696C137.126 182.696 137.031 182.6 137.126 182.473C137.134 182.469 137.141 182.465 137.148 182.461C137.155 182.457 137.161 182.454 137.166 182.451L137.179 182.444C137.197 182.435 137.205 182.43 137.215 182.427C137.224 182.424 137.234 182.423 137.253 182.422H137.254L137.266 182.421L137.275 182.42C137.287 182.419 137.302 182.418 137.321 182.415ZM119.822 40.3736C118.711 40.3736 117.569 40.8818 117.188 41.5164C117.028 41.7708 116.615 41.8661 116.076 41.7708C113.219 41.1995 114.362 45.961 117.568 48.0568C118.87 48.9139 118.934 49.0091 118.076 48.8186C116.807 48.5329 115.727 47.7071 114.584 46.1514C113.663 44.9134 112.521 44.3741 112.521 45.2311C112.521 46.85 115.505 49.1363 118.14 49.5485L119.664 49.7709L118.362 50.5008C114.356 52.7426 114.587 57.7539 115.548 61.5904C116.005 62.9267 116.517 64.2521 117.273 65.4527C119.414 69.2072 123.822 70.6146 123.284 75.6071C123.157 76.7187 122.903 77.2901 122.141 77.9567C120.585 79.3219 119.951 79.1947 116.68 76.7819C114.395 75.099 111.503 72.9758 106.712 72.3873C97.3274 71.2351 91.694 72.6277 82.7018 77.2612C76.3698 80.5232 68.0341 89.6778 64.1929 96.1229C60.3517 102.567 55.6214 110.471 55.2374 120.79C54.7596 133.644 55.8805 144.032 64.1929 160.219C65.3996 162.568 66.3207 164.029 70.9558 170.79C75.8125 177.933 76.7968 182.187 74.1304 184.537C72.4474 185.965 69.8442 185.14 69.8442 183.172C69.8442 182.568 70.0027 181.997 70.1619 181.902C70.3524 181.806 70.4796 181.934 70.4788 182.187C70.4796 182.918 71.6224 183.425 72.3522 183.044C73.6222 182.347 73.6542 180.854 72.4154 179.457C70.1939 176.981 66.3519 179.299 66.3519 183.109C66.3582 183.274 66.3621 183.393 66.3644 183.484C66.3691 183.629 66.3707 183.699 66.3793 183.769C66.3871 183.834 66.4003 183.899 66.4261 184.025C66.448 184.132 66.4792 184.284 66.5237 184.518L66.7563 185.222C67.1747 186.118 67.5751 186.662 68.3205 187.331C68.4509 187.448 68.5266 187.518 68.5774 187.565L68.5781 187.566C68.6234 187.609 68.6492 187.631 68.6757 187.653C68.7062 187.68 68.7389 187.704 68.81 187.757C68.842 187.781 68.8818 187.811 68.9333 187.85L69.8723 188.493C71.3593 189.352 73.1125 189.706 74.733 188.982C75.4636 188.664 75.654 188.727 76.3206 189.458C77.1777 190.378 77.5266 190.473 78.3845 189.997C79.0823 189.648 80.0034 187.489 80.0034 186.251C80.0346 185.521 80.0666 185.457 80.4155 185.902C80.638 186.188 81.1141 186.569 81.5271 186.79C81.908 186.982 82.2257 187.457 82.2257 187.775C82.2257 188.505 82.3521 188.537 83.2092 188.092C84.6064 187.331 85.1458 184.886 84.3207 183.267C84.0671 182.759 83.9078 182.378 83.9398 182.378C84.0031 182.378 85.0194 183.044 86.2253 183.838C87.4321 184.663 90.289 186.219 92.5745 187.331C102.67 192.251 116.014 194.474 126.712 194.029C136.014 193.617 142.173 191.902 153.316 186.632C157.094 184.823 160.872 183.172 161.665 182.981C163.634 182.473 166.586 182.791 167.983 183.648C171.316 185.712 171.92 190.759 169.031 192.537C167.698 193.331 165.38 193.362 164.459 192.6C163.348 191.711 162.682 190.41 162.903 189.679C163.094 189.045 163.126 189.045 163.76 189.839C165.062 191.49 167.19 190.473 167.19 188.219C167.19 185.965 163.634 184.663 161.729 186.188C159.919 187.584 159.348 190.854 160.491 193.362C161.665 195.934 163.92 197.267 167.126 197.299C168.237 197.299 169.444 197.14 169.793 196.95C170.332 196.664 170.555 196.727 171.094 197.267C171.149 197.322 171.199 197.373 171.246 197.42C171.526 197.704 171.675 197.854 171.843 197.883C172.032 197.916 172.248 197.799 172.704 197.549C172.757 197.52 172.813 197.49 172.872 197.458C174.142 196.822 175.126 194.632 175.348 191.934C175.507 189.839 175.603 189.679 176.269 189.679C178.047 189.679 178.555 186.346 177.221 183.489C176.237 181.362 175.031 179.997 173.253 178.981C172.953 178.801 172.662 178.63 172.412 178.484L172.408 178.481L172.408 178.48C172 178.242 171.705 178.068 171.665 178.029C171.602 177.997 171.761 177.68 172.015 177.394C172.967 176.314 172.714 174.6 171.539 174.155C170.968 173.934 171.031 173.806 172.459 172.854C177.094 169.68 180.396 166.473 183.539 162.06C188.11 155.647 191.92 152.441 195.825 151.743C196.968 151.52 196.968 151.552 196.936 152.537C196.904 153.234 197.063 153.679 197.444 153.933C197.92 154.219 198.142 154.123 198.809 153.394C199.793 152.251 199.793 152.06 198.491 150.758C197.508 149.774 197.222 149.679 195.539 149.647H193.698L195.317 149.012C197.952 147.997 199.952 145.584 200.936 142.155C201.444 140.409 201.349 139.933 200.586 140.568C199.825 141.203 196.65 141.075 196.143 140.378C195.888 140.028 195.476 139.869 195.126 139.997C194.619 140.155 194.587 139.965 194.714 138.028C194.873 135.996 194.809 135.711 193.698 133.679C192.873 132.092 192.555 131.171 192.65 130.441C192.746 129.615 192.682 129.457 192.365 129.742C191.603 130.377 190.015 136.695 189.571 140.79C189.127 145.139 187.063 150.029 183.856 154.282C182.872 155.584 181.92 156.759 181.729 156.854C181.317 157.108 181.571 156.631 182.618 155.235C185.507 151.267 187.793 144.981 188.777 138.251C188.786 138.192 188.794 138.133 188.804 138.073L188.821 137.955L188.843 137.809C189.16 135.664 189.615 132.596 190.486 129.742C190.636 129.25 190.8 128.763 190.976 128.289L194.282 118.64C194.028 118.553 194.421 117.234 194.683 117.3C194.756 117.187 194.916 116.883 194.968 116.758C196.111 114.123 196.206 113.552 195.825 112.345C195.19 110.25 195.031 110.155 193.571 110.599C192.841 110.79 192.269 111.139 192.269 111.329C192.269 111.52 191.92 111.361 191.508 110.948C191.063 110.567 190.491 110.313 190.238 110.408C188.904 110.916 187.825 114.409 187.825 118.187C187.825 120.346 187.507 121.108 187.063 119.964C186.682 118.948 186.904 115.425 187.475 113.107C188.206 110.313 189.316 107.932 190.967 105.71C191.634 104.853 192.365 103.773 192.587 103.361C193.158 102.282 193.063 98.5989 192.428 96.6623C191.952 95.1707 191.317 94.5353 191.317 95.5196C191.317 95.742 190.586 96.3766 189.697 96.948C188.809 97.4874 188.015 98.218 187.92 98.5669C187.73 99.2975 187.698 99.3288 186.872 98.8214C186.396 98.5037 186.142 98.5357 185.634 99.0119C185.254 99.3608 184.967 99.8369 184.967 100.123C184.967 100.568 184.904 100.568 184.65 100.155C184.237 99.52 184.269 97.3929 184.777 94.1223C185.254 90.8845 184.967 89.0752 183.824 87.5195C183.063 86.5352 182.872 86.4399 181.761 86.5984C180.777 86.7256 180.523 86.6624 180.523 86.2815C180.523 86.027 179.539 84.789 178.301 83.583C175.983 81.2655 175.666 80.7254 176.713 81.011C177.507 81.2335 177.856 80.3764 177.412 79.3289C176.936 78.3446 175.698 78.3126 174.777 79.2337C173.761 80.2492 174.079 83.1701 175.729 87.9636C177.157 92.1857 177.38 94.472 176.491 95.4563C176.205 95.7733 175.761 96.0277 175.507 96.0277C175.126 96.0277 175.094 95.71 175.285 94.2176C175.824 90.3764 175.38 88.2181 173.634 85.9318C172.301 84.1864 170.84 83.7415 165.539 83.551C160.237 83.3286 158.967 82.9477 157.983 81.3607C157.158 79.9955 157.19 79.4554 158.11 78.5983L158.872 77.9005L159.062 78.6935C159.317 79.7731 160.65 80.1228 161.475 79.3609C162.364 78.5351 162.269 77.8052 161.094 76.8209C160.015 75.8999 159.253 75.9319 157.507 76.9474C155.602 78.0589 154.269 81.0431 154.618 83.4558C155.063 86.2815 157.697 90.4716 160.745 93.1388C161.539 93.8687 163.665 95.4876 165.411 96.7576C169.094 99.3608 171.952 102.059 172.714 103.647L173.253 104.758L172.206 103.52C168.745 99.3928 163.253 95.8373 158.3 94.5673C155.507 93.8687 151.189 94.0911 148.649 95.0746C143.665 96.98 141.221 102.059 143.22 106.281C144.999 110.028 150.967 110.282 152.713 106.726C154.301 103.424 150.681 99.7417 148.3 102.282C147.856 102.758 147.507 103.392 147.507 103.647C147.507 104.441 148.459 105.552 149.126 105.552C149.951 105.552 149.887 106.123 148.998 106.345C147.126 106.821 145.094 104.758 145.475 102.695C146.141 98.9166 149.285 96.4719 153.983 96.1229C156.84 95.9005 158.967 96.3446 161.983 97.8051C164.65 99.1391 165.348 99.7417 163.316 99.0119C161.349 98.3132 157.094 98.0908 154.808 98.5669C153.761 98.7894 152.968 99.0751 153.094 99.1703C153.189 99.2655 153.348 99.3288 153.412 99.2655C153.856 98.9798 155.57 100.408 156.617 101.964C157.507 103.266 158.3 104.028 159.443 104.599C160.523 105.139 160.999 105.583 160.999 106.028C160.999 106.599 161.285 106.694 163.729 106.885C171.348 107.456 177.444 113.012 180.015 121.71C180.904 124.758 180.523 124.854 179.444 121.901C177.031 115.266 172.777 111.202 166.967 109.996C164.173 109.393 158.777 109.71 157.158 110.567C154.046 112.154 152.3 116.313 154.49 116.885C154.54 116.897 154.586 116.908 154.629 116.918C154.844 116.97 154.979 117.002 155.034 117.086C155.127 117.228 154.992 117.519 154.629 118.3V118.301C154.586 118.393 154.54 118.493 154.49 118.6C153.539 120.695 153.634 123.71 154.682 125.806C155.856 128.187 157.634 129.012 159.221 127.901C159.888 127.425 159.983 127.425 160.808 128.219C161.983 129.329 164.618 130.314 166.491 130.314C169.57 130.314 171.348 127.964 169.031 127.012L168.015 126.568L169.126 126.092C172.269 124.79 172.84 120.631 170.206 118.282C166.936 115.425 161.665 116.726 161.253 120.472C161.126 121.71 161.221 122.091 161.951 122.948C162.903 124.092 164.078 124.282 165.221 123.456C165.952 122.948 166.173 121.615 165.602 121.266C165.062 120.948 165.253 120.472 165.856 120.695C168.142 121.488 167.158 124.885 164.491 125.393C162.935 125.711 160.84 124.409 159.951 122.631C159.031 120.79 159.189 119.297 160.555 117.139C162.206 114.504 165.602 113.742 169.317 115.107C173.127 116.568 177.189 121.837 178.682 127.362C179.539 130.599 179.602 137.584 178.808 142.219C177.793 148.155 175.571 154.981 173.285 159.203C171.793 161.965 171.634 161.552 173.031 158.568C176.555 151.108 177.602 142.536 175.729 136.472C174.872 133.679 173.158 131.901 171.316 131.901C169.888 131.901 168.777 132.758 168.776 133.869C168.777 134.6 169.602 135.711 170.142 135.711C170.713 135.711 171.602 134.726 171.412 134.25C171.094 133.425 171.602 133.806 172.11 134.758C172.745 135.965 172.714 137.71 172.078 138.98C171.793 139.552 170.587 141.012 169.38 142.282C166.999 144.79 166.46 146.219 166.935 148.568C167.602 151.743 167.602 152.219 167.094 152.219C166.745 152.219 166.523 151.775 166.364 150.726C166.11 148.791 165.634 147.902 164.205 146.536C163.221 145.584 163.063 145.521 163.063 146.06C163.063 146.949 160.745 150.219 160.237 150.06C159.666 149.869 158.936 150.854 159.157 151.52C159.253 151.838 159.729 152.917 160.237 153.965C163.094 159.838 161.507 167.806 156.523 172.536L155.031 173.965L156.015 172.536C156.554 171.743 157.411 170.188 157.887 169.044C159.061 166.209 159.334 162.58 158.047 159.812C157.126 157.812 155.411 156.002 153.38 154.955C151.126 153.78 146.84 153.59 144.332 154.542C140.649 155.939 138.617 158.796 138.617 162.606C138.617 167.082 141.125 169.207 145.252 169.238C149.57 169.238 152.523 166.193 151.062 162.637C150.237 160.637 147.348 159.939 145.728 161.336C144.237 162.637 144.776 165.272 146.459 164.955C147.316 164.796 147.443 165.209 146.681 165.621C145.475 166.289 143.506 164.987 143.189 163.273C142.776 161.113 144.364 158.765 146.65 158.225C149.062 157.621 152.618 159.272 154.015 161.685C155.792 164.733 155.034 167.545 153.729 170.156C151.189 175.235 146.364 179.394 140.204 181.711C137.379 182.791 137.601 182.473 140.84 180.917C144.173 179.267 146.459 177.235 148.713 173.902C149.856 172.251 150.84 170.314 150.586 170.314C150.554 170.314 149.824 170.664 148.967 171.108C147.316 171.933 145.38 172.092 142.427 171.647C141.634 171.521 140.681 171.458 140.3 171.521C139.094 171.711 137.697 173.393 137.189 175.33C136.427 178.124 135.856 179.14 134.807 179.679C133.665 180.251 133.633 180.124 134.522 178.886C135.538 177.552 135.665 175.204 134.871 173.393C134.046 171.552 132.649 170.632 130.649 170.632C129.125 170.632 128.618 170.949 128.395 172.06C128.332 172.505 127.951 172.727 127.125 172.886C125.411 173.172 124.395 173.965 124.141 175.235C123.602 178.219 125.887 180.22 128.077 178.695C128.998 178.061 128.935 176.41 127.982 175.901C127.633 175.711 127.284 175.521 127.189 175.457C126.998 175.33 127.919 174.759 128.363 174.759C128.554 174.759 129.157 175.14 129.697 175.585C131.411 177.013 130.808 179.458 128.268 181.711C126.49 183.267 123.252 184.314 119.601 184.505L116.871 184.632L118.426 183.997C120.3 183.235 121.03 182.568 121.823 181.045C122.554 179.616 122.585 178.918 121.951 177.426C121.57 176.505 121.538 175.997 121.823 174.949C122.268 173.14 121.57 171.362 120.236 170.854C119.696 170.664 119.125 170.092 118.902 169.552C118.268 168.124 116.775 167.299 113.474 166.505C112.624 166.296 111.782 166.109 110.977 165.93C107.878 165.244 105.328 164.679 104.924 163.394C104.734 162.759 104.797 162.695 105.495 162.854C106.543 163.14 106.893 162.251 105.94 161.584C105.082 160.981 104.797 160.981 104.067 161.647C103.336 162.283 103.336 163.902 104.035 164.917C104.321 165.362 105.432 166.631 106.511 167.806C107.189 168.531 107.899 169.226 108.583 169.897C111.137 172.398 113.345 174.56 112.268 176.663C110.141 180.822 98.6068 181.172 90.4795 177.394C79.1463 172.092 65.5901 155.489 65.3044 146.504C65.2412 144.981 65.3044 144.758 65.8438 144.758C66.2567 144.758 66.9233 145.615 68.0981 147.774C70.7645 152.537 73.7807 155.266 77.5906 156.251C79.6857 156.791 80.9557 156.536 80.9557 155.584C80.9557 154.949 81.1141 154.885 82.7331 154.885C83.6861 154.854 84.6384 154.695 84.7969 154.536C85.1778 154.155 84.0671 151.425 83.114 150.409L82.4474 149.679H83.8446C85.4955 149.679 88.0347 148.568 89.2727 147.33C91.3365 145.234 91.4958 142.25 89.5592 141.869C88.7333 141.679 88.6381 141.552 88.7653 140.822C88.8606 140.346 88.7966 139.361 88.6061 138.631C87.8763 135.996 85.4003 134.124 82.6378 134.124C80.5748 134.124 79.4952 134.726 79.5905 135.806C79.6225 136.377 79.4632 136.695 79.0191 136.821C78.2252 137.076 77.1457 138.79 77.1457 139.774C77.1457 140.886 78.0036 142.314 78.7966 142.568C81.3686 143.362 83.3684 141.774 82.3209 139.742C81.876 138.885 81.908 138.854 82.5114 139.203C83.5589 139.742 83.9078 140.726 83.7494 142.631C83.6221 144.219 83.4637 144.536 82.4161 145.425C77.2409 149.901 68.3526 144.568 66.5104 135.869C65.9078 133.012 65.9078 131.456 66.5424 128.631C67.8124 122.854 71.8761 117.71 77.2409 115.139C80.9869 113.298 85.5267 112.282 91.7495 111.901C96.8607 111.583 98.3523 111.297 100.479 110.25C103.686 108.599 100.048 106.761 101.444 102.633C101.738 101.766 103.354 102.112 105.196 102.506C107.939 103.093 111.183 103.789 111.315 100.75C111.696 92.338 112.776 89.417 116.109 87.7029C117.379 87.0675 120.014 86.8771 120.808 87.3852C121.125 87.5757 120.649 87.6709 119.443 87.6709C117.348 87.6389 116.522 88.1158 114.903 90.2421C113.697 91.7978 113.22 93.3223 113.22 95.5438C113.22 98.4967 114.331 100.655 116.49 101.734C118.141 102.592 119.887 102.401 122.458 101.036C124.522 99.9251 125.22 99.3537 126.903 97.3219C127.824 96.1792 128.3 95.8935 129.601 95.639C131.919 95.2269 134.935 93.6072 136.205 92.1155C137.697 90.3693 138.364 88.2423 138.363 85.2581C138.332 82.3372 137.538 79.5123 136.046 77.1948C131.668 70.5147 123.686 68.1933 120.153 60.8036C119.8 59.4376 119.232 57.8663 119.79 56.469L120.14 55.5807L121.06 56.2786C121.886 56.882 122.298 56.9452 124.362 56.8187C126.14 56.6915 126.933 56.501 127.695 55.9297C128.521 55.3263 128.902 55.231 130.14 55.3895C131.251 55.5487 131.537 55.5167 131.378 55.1998C130.87 54.3108 130.172 53.7074 129.6 53.7074C129.029 53.7074 128.648 53.3897 126.743 51.2314C126.203 50.66 125.188 50.0566 124.076 49.7069C120.965 48.7234 118.552 46.4371 118.552 44.4693C118.552 43.9931 118.774 43.453 119.028 43.2305C119.441 42.9136 119.504 42.9456 119.504 43.485C119.504 44.2468 120.298 45.1359 120.965 45.1359C121.695 45.1359 122.68 43.9291 122.679 43.0408C122.68 41.8661 121.092 40.3736 119.822 40.3736ZM194.683 117.3C194.526 117.824 194.282 118.64 194.282 118.64C194.028 118.553 194.421 117.234 194.683 117.3ZM196.386 134.711C195.924 135.454 196.52 138.143 197.226 138.581C197.523 138.766 198.4 138.848 199.234 138.749C200.009 138.663 200.893 138.234 201.17 137.788C201.771 136.822 201.306 134.421 200.414 133.867C199.559 133.335 196.894 133.894 196.386 134.711ZM195.721 130.17C195.425 130.645 195.807 132.366 196.258 132.647C196.449 132.765 197.01 132.817 197.544 132.753C198.039 132.698 198.605 132.424 198.782 132.139C199.167 131.52 198.869 129.984 198.299 129.629C197.752 129.29 196.046 129.646 195.721 130.17ZM194.585 126.945C194.403 127.237 194.697 128.329 195 128.517C195.127 128.596 195.495 128.643 195.844 128.617C196.166 128.596 196.53 128.437 196.638 128.262C196.874 127.884 196.639 126.91 196.257 126.672C195.89 126.444 194.784 126.625 194.585 126.945ZM103.226 70.663C108.944 71.0494 113.84 71.8666 117.378 74.5393C117.768 74.6478 118.179 74.864 117.473 74.2521C116.388 73.42 112.881 68.9051 102.626 67.6133C100.444 67.3971 97.2213 67.2503 95.4947 67.2932C93.7672 67.3362 91.9446 67.2534 91.4552 67.1161C90.691 66.9014 90.6254 66.7843 90.9236 66.3074C91.794 64.9687 89.9705 63.8306 88.1471 64.5722C87.0629 65.0257 86.7351 65.7251 87.0559 67.1676C87.3057 68.3915 88.5569 69.336 90.2984 69.5936C91.4411 69.7505 91.4942 69.7973 90.7355 69.9144C90.2172 70.0003 88.9472 69.7091 87.475 69.1971C86.1559 68.7287 84.4573 68.3174 83.6729 68.2947C81.3179 68.2276 79.1284 70.1525 78.3135 73.0562C75.3855 74.8609 74.5659 78.2767 74.882 79.2446C75.1232 79.6755 79.6451 75.9592 84.4823 74.3489C90.6254 72.3139 95.7835 70.1611 103.226 70.663ZM98.3281 66.3136C98.4039 66.2122 98.4288 66.1841 98.4444 66.1521C98.4647 66.1115 98.471 66.0646 98.5428 65.8609C98.5756 65.5526 98.471 65.3246 98.2719 65.103C97.9215 64.7845 97.3797 64.8102 97.0605 65.1599C96.742 65.5104 96.7678 66.0521 97.1175 66.3706L97.2572 66.4744C97.6514 66.6672 98.0073 66.6024 98.3281 66.3136ZM126.401 124.135C129.247 124.135 130.671 125.061 130.671 126.913C130.671 127.796 130.254 128.501 129.419 129.026C128.584 129.551 127.455 129.813 126.031 129.813H124.759C124.212 129.813 123.869 129.759 123.733 129.648C123.514 129.51 123.404 129.165 123.404 128.612V126.166C123.404 125.255 123.692 124.661 124.267 124.384C124.65 124.218 125.362 124.135 126.401 124.135ZM126.114 134.704C127.784 134.704 129.125 135.05 130.137 135.741C131.15 136.432 131.656 137.343 131.656 138.476C131.656 139.471 131.28 140.272 130.528 140.88C129.774 141.488 128.796 141.792 127.592 141.792C126.004 141.792 124.91 141.591 124.308 141.191C123.705 140.79 123.404 140.065 123.404 139.015V135.989C123.404 135.492 123.5 135.153 123.692 134.974C123.883 134.794 124.28 134.704 124.882 134.704H126.114ZM125.91 116.442C124.374 116.442 123.129 117.7 123.129 119.251L123.134 119.36L123.035 119.369C122.406 119.424 121.556 119.452 120.489 119.452C119.121 119.452 118.026 119.411 117.205 119.328L114.29 119.037C114.263 119.037 114.208 119.023 114.126 118.996H113.961C113.086 118.996 112.381 119.279 111.848 119.846C111.314 120.412 111.047 121.151 111.047 122.063C111.047 122.837 111.259 123.486 111.684 124.011C112.108 124.536 112.634 124.798 113.264 124.798C113.51 124.798 113.845 124.75 114.27 124.654C114.694 124.557 115.015 124.509 115.235 124.509C115.974 124.509 116.343 125.434 116.343 127.285V138.766C116.343 140.645 115.974 141.585 115.235 141.585C115.015 141.585 114.694 141.537 114.27 141.44C113.845 141.343 113.51 141.295 113.264 141.295C112.634 141.295 112.108 141.557 111.684 142.082C111.259 142.607 111.047 143.256 111.047 144.03C111.047 144.942 111.314 145.674 111.848 146.227C112.381 146.78 113.086 147.055 113.961 147.055H114.29C114.837 147.055 115.741 146.987 116.999 146.849C118.259 146.71 119.217 146.641 119.874 146.641C120.777 146.641 121.612 146.669 122.378 146.724L124.075 146.845C124.367 148.293 125.313 149.271 126.832 149.316C128.153 149.249 129.318 148.394 129.552 147.032C132.012 146.891 134.517 146.429 136.522 144.88C138.397 143.429 139.333 141.392 139.333 138.766C139.333 137.606 139.073 136.487 138.553 135.409C137.87 133.999 136.46 132.867 134.325 132.011L133.299 131.596C136.665 130.794 138.348 128.874 138.348 125.835C138.348 124.37 137.897 123.064 136.994 121.918C136.09 120.771 134.914 120.005 133.463 119.617C131.897 119.233 130.296 119.024 128.682 119.039C128.61 117.572 127.323 116.468 125.91 116.442Z" fill="#D9B16D"/>
</svg>
