<?xml version="1.0" encoding="iso-8859-1"?>
<!-- Generator: Adobe Illustrator 19.0.0, SVG Export Plug-In . SVG Version: 6.00 Build 0)  -->
<svg version="1.1" id="Capa_1" xmlns="http://www.w3.org/2000/svg" xmlns:xlink="http://www.w3.org/1999/xlink" x="0px" y="0px"
	 viewBox="0 0 480.004 480.004" style="enable-background:new 0 0 480.004 480.004;" xml:space="preserve">
<g>
	<g>
		<path d="M479.158,468.244l-232-464c-2.72-5.424-11.592-5.424-14.312,0l-232,464c-1.24,2.48-1.112,5.424,0.352,7.784
			s4.024,3.8,6.8,3.8h464c2.776,0,5.344-1.44,6.808-3.8C480.27,473.668,480.398,470.724,479.158,468.244z M239.998,25.716
			l99.056,198.112H140.942L239.998,25.716z M20.942,463.828L127.75,250.212l99.688,213.616H20.942z M140.558,239.828h198.88
			l-99.44,213.088L140.558,239.828z M252.558,463.828l99.688-213.616l106.808,213.616H252.558z"/>
	</g>
</g>
<g>
</g>
<g>
</g>
<g>
</g>
<g>
</g>
<g>
</g>
<g>
</g>
<g>
</g>
<g>
</g>
<g>
</g>
<g>
</g>
<g>
</g>
<g>
</g>
<g>
</g>
<g>
</g>
<g>
</g>
</svg>
