<?xml version="1.0" encoding="iso-8859-1"?>
<!-- Generator: Adobe Illustrator 19.0.0, SVG Export Plug-In . SVG Version: 6.00 Build 0)  -->
<svg version="1.1" id="Capa_1" xmlns="http://www.w3.org/2000/svg" xmlns:xlink="http://www.w3.org/1999/xlink" x="0px" y="0px"
	 viewBox="0 0 480 480" style="enable-background:new 0 0 480 480;" xml:space="preserve">
<g>
	<g>
		<path d="M240,0C107.664,0,0,107.664,0,240s107.664,240,240,240s240-107.664,240-240S372.336,0,240,0z M240,464
			c-44.112,0-80-35.888-80-80s35.888-80,80-80s80,35.888,80,80S284.112,464,240,464z M321.328,434.768
			C330.568,420.016,336,402.648,336,384c0-52.936-43.064-96-96-96c-52.936,0-96,43.064-96,96c0,18.648,5.432,36.016,14.672,50.768
			C130.184,411.272,112,375.72,112,336c0-70.576,57.424-128,128-128s128,57.424,128,128C368,375.72,349.816,411.272,321.328,434.768
			z M357.632,418.784C374.184,395.336,384,366.816,384,336c0-79.4-64.6-144-144-144S96,256.6,96,336
			c0,30.816,9.816,59.336,26.368,82.784C86.56,386.544,64,339.864,64,288c0-97.048,78.952-176,176-176s176,78.952,176,176
			C416,339.864,393.44,386.544,357.632,418.784z M394.208,402.232C417.936,370.288,432,330.76,432,288c0-105.864-86.136-192-192-192
			S48,182.136,48,288c0,42.76,14.064,82.288,37.792,114.232C42.848,361.4,16,303.792,16,240C16,116.488,116.488,16,240,16
			s224,100.488,224,224C464,303.792,437.152,361.4,394.208,402.232z"/>
	</g>
</g>
<g>
</g>
<g>
</g>
<g>
</g>
<g>
</g>
<g>
</g>
<g>
</g>
<g>
</g>
<g>
</g>
<g>
</g>
<g>
</g>
<g>
</g>
<g>
</g>
<g>
</g>
<g>
</g>
<g>
</g>
</svg>
