<?xml version="1.0" encoding="iso-8859-1"?>
<!-- Generator: Adobe Illustrator 19.0.0, SVG Export Plug-In . SVG Version: 6.00 Build 0)  -->
<svg version="1.1" id="Capa_1" xmlns="http://www.w3.org/2000/svg" xmlns:xlink="http://www.w3.org/1999/xlink" x="0px" y="0px"
	 viewBox="0 0 480 480" style="enable-background:new 0 0 480 480;" xml:space="preserve">
<g>
	<g>
		<path d="M240,0v16c123.512,0,224,100.488,224,224S363.512,464,240,464S16,363.512,16,240c0-71.432,34.656-139.232,92.704-181.376
			l-9.408-12.952C37.128,90.816,0,163.464,0,240c0,132.336,107.664,240,240,240s240-107.664,240-240S372.336,0,240,0z"/>
	</g>
</g>
<g>
	<g>
		<path d="M240,48v16c97.048,0,176,78.952,176,176s-78.952,176-176,176S64,337.048,64,240c0-21.056,3.696-41.648,10.976-61.208
			l-15-5.584C52.032,194.56,48,217.032,48,240c0,105.864,86.136,192,192,192s192-86.136,192-192S345.864,48,240,48z"/>
	</g>
</g>
<g>
	<g>
		<path d="M240,96v16c70.576,0,128,57.424,128,128s-57.424,128-128,128c-62.088,0-115.08-44.328-126.008-105.4l-15.752,2.816
			C110.536,334.128,170.16,384,240,384c79.4,0,144-64.6,144-144S319.4,96,240,96z"/>
	</g>
</g>
<g>
	<g>
		<path d="M240,144v16c44.112,0,80,35.888,80,80s-35.888,80-80,80c-18.536,0-36.608-6.504-50.888-18.328L178.904,314
			c17.152,14.184,38.848,22,61.096,22c52.936,0,96-43.064,96-96C336,187.064,292.936,144,240,144z"/>
	</g>
</g>
<g>
	<g>
		<path d="M240,192c-26.472,0-48,21.528-48,48s21.528,48,48,48s48-21.528,48-48S266.472,192,240,192z M240,272
			c-17.648,0-32-14.352-32-32s14.352-32,32-32s32,14.352,32,32S257.648,272,240,272z"/>
	</g>
</g>
<g>
</g>
<g>
</g>
<g>
</g>
<g>
</g>
<g>
</g>
<g>
</g>
<g>
</g>
<g>
</g>
<g>
</g>
<g>
</g>
<g>
</g>
<g>
</g>
<g>
</g>
<g>
</g>
<g>
</g>
</svg>
