<?xml version="1.0" encoding="iso-8859-1"?>
<!-- Generator: Adobe Illustrator 19.0.0, SVG Export Plug-In . SVG Version: 6.00 Build 0)  -->
<svg version="1.1" id="Capa_1" xmlns="http://www.w3.org/2000/svg" xmlns:xlink="http://www.w3.org/1999/xlink" x="0px" y="0px"
	 viewBox="0 0 480 480" style="enable-background:new 0 0 480 480;" xml:space="preserve">
<g>
	<g>
		<path d="M398.496,180.736C399.384,173.928,400,167.04,400,160C400,71.776,328.224,0,240,0S80,71.776,80,160
			c0,7.04,0.616,13.928,1.504,20.736C32.92,208.232,0,260.304,0,320c0,88.224,71.776,160,160,160c29.16,0,56.432-7.968,80-21.648
			C263.568,472.032,290.84,480,320,480c88.224,0,160-71.776,160-160C480,260.304,447.08,208.232,398.496,180.736z M240,16
			c79.4,0,144,64.6,144,144c0,4.432-0.272,8.8-0.664,13.128C363.896,164.712,342.496,160,320,160c-29.16,0-56.432,7.968-80,21.648
			C216.432,167.968,189.16,160,160,160c-22.496,0-43.896,4.712-63.336,13.128C96.272,168.8,96,164.432,96,160
			C96,80.6,160.6,16,240,16z M240,200.352c30.68,20.576,53.024,52.624,60.888,89.96C282.36,299,261.776,304,240,304
			s-42.36-5-60.888-13.696C186.976,252.976,209.32,220.928,240,200.352z M164.632,282.464
			c-33.008-20.392-57.272-53.616-65.52-92.776C117.64,181,138.224,176,160,176c23.36,0,45.368,5.712,64.904,15.632
			C195.288,213.632,173.56,245.528,164.632,282.464z M255.096,191.632C274.632,181.712,296.64,176,320,176
			c21.776,0,42.36,5,60.888,13.696c-8.248,39.152-32.504,72.376-65.52,92.776C306.44,245.528,284.712,213.632,255.096,191.632z
			 M160,464c-79.4,0-144-64.6-144-144c0-51.752,27.536-97.08,68.632-122.464c10.528,43.56,38.824,80.2,76.872,101.728
			C160.616,306.072,160,312.96,160,320c0,52.584,25.616,99.184,64.904,128.368C205.368,458.288,183.36,464,160,464z M176,320
			c0-4.432,0.272-8.8,0.664-13.128C196.104,315.288,217.504,320,240,320c22.496,0,43.896-4.712,63.336-13.128
			C303.728,311.2,304,315.568,304,320c0,49.816-25.44,93.784-64,119.648C201.44,413.784,176,369.816,176,320z M320,464
			c-23.36,0-45.368-5.712-64.904-15.632C294.384,419.184,320,372.584,320,320c0-7.04-0.616-13.928-1.504-20.736
			c38.048-21.536,66.344-58.168,76.872-101.728C436.464,222.92,464,268.248,464,320C464,399.4,399.4,464,320,464z"/>
	</g>
</g>
<g>
</g>
<g>
</g>
<g>
</g>
<g>
</g>
<g>
</g>
<g>
</g>
<g>
</g>
<g>
</g>
<g>
</g>
<g>
</g>
<g>
</g>
<g>
</g>
<g>
</g>
<g>
</g>
<g>
</g>
</svg>
