<?xml version="1.0" encoding="iso-8859-1"?>
<!-- Generator: Adobe Illustrator 19.0.0, SVG Export Plug-In . SVG Version: 6.00 Build 0)  -->
<svg version="1.1" id="Capa_1" xmlns="http://www.w3.org/2000/svg" xmlns:xlink="http://www.w3.org/1999/xlink" x="0px" y="0px"
	 viewBox="0 0 480 480" style="enable-background:new 0 0 480 480;" xml:space="preserve">
<g>
	<g>
		<path d="M456,152v52.688l-32,32l-32-32V152h-16v56c0,2.128,0.84,4.16,2.344,5.656L416,251.312v17.376l-176,176V331.312
			l101.656-101.656C343.16,228.16,344,226.128,344,224v-76.688l61.656-61.656C407.16,84.16,408,82.128,408,80V0h-16v76.688l-56,56
			l-56-56V0h-16v80c0,2.128,0.84,4.16,2.344,5.656L328,147.312v73.376l-88,88V216c0-2.128-0.84-4.16-2.344-5.656L152,124.688V67.312
			l21.656-21.656C175.16,44.16,176,42.128,176,40V0h-16v36.688l-16,16l-16-16V0h-16v40c0,2.128,0.84,4.16,2.344,5.656L136,67.312
			V128c0,2.128,0.84,4.16,2.344,5.656L224,219.312v161.376l-96-96V192h-16v76.688l-56-56v-33.376l29.656-29.656
			C87.16,148.16,88,146.128,88,144v-40H72v36.688l-24,24l-24-24V104H8v40c0,2.128,0.84,4.16,2.344,5.656L40,179.312V216
			c0,2.128,0.84,4.16,2.344,5.656l72,72L224,403.312V480h16v-12.688l189.656-189.656C431.16,276.16,432,274.128,432,272v-20.688
			l37.656-37.656C471.16,212.16,472,210.128,472,208v-56H456z"/>
	</g>
</g>
<g>
</g>
<g>
</g>
<g>
</g>
<g>
</g>
<g>
</g>
<g>
</g>
<g>
</g>
<g>
</g>
<g>
</g>
<g>
</g>
<g>
</g>
<g>
</g>
<g>
</g>
<g>
</g>
<g>
</g>
</svg>
