<svg width="47" height="47" viewBox="0 0 47 47" fill="none" xmlns="http://www.w3.org/2000/svg">
<path fill-rule="evenodd" clip-rule="evenodd" d="M26.4102 36.408C26.4124 36.4073 26.4148 36.4072 26.4194 36.4068H26.4195C26.4204 36.4067 26.4214 36.4066 26.4225 36.4066C26.4232 36.4065 26.4239 36.4064 26.4246 36.4064C26.4276 36.4061 26.4312 36.4058 26.4356 36.4053L26.4702 36.4063L26.4954 36.4191C26.5183 36.4497 26.4954 36.4725 26.442 36.4725C26.3887 36.4725 26.3659 36.4497 26.3887 36.4191C26.3907 36.4181 26.3925 36.4172 26.3941 36.4163C26.3957 36.4154 26.3972 36.4146 26.3984 36.4139C26.3996 36.4133 26.4006 36.4128 26.4015 36.4122C26.4058 36.4099 26.4079 36.4087 26.4102 36.408Z" fill="#FF2626"/>
<path fill-rule="evenodd" clip-rule="evenodd" d="M26.3887 36.4191C26.3659 36.4497 26.3887 36.4725 26.442 36.4725C26.4954 36.4725 26.5183 36.4497 26.4954 36.4191L26.4702 36.4063L26.4356 36.4053C26.4312 36.4058 26.4276 36.4061 26.4246 36.4064C26.4239 36.4064 26.4232 36.4065 26.4225 36.4066L26.4195 36.4068H26.4194C26.4148 36.4072 26.4124 36.4073 26.4102 36.408C26.4079 36.4087 26.4058 36.4099 26.4015 36.4122C26.4006 36.4128 26.3996 36.4133 26.3984 36.4139C26.3972 36.4146 26.3957 36.4154 26.3941 36.4163C26.3925 36.4172 26.3907 36.4181 26.3887 36.4191Z" fill="#FF2626"/>
<path d="M16.2851 19.6514C16.3334 19.6691 16.322 19.6521 16.3302 19.6932C16.3302 19.7847 16.1015 19.8533 14.8816 20.1583C13.5856 20.4708 12.564 20.974 11.9312 21.6068C11.1079 22.4225 10.7038 23.5509 10.8029 24.7859C10.8487 25.373 10.8411 25.4111 10.6733 25.5255C10.4751 25.6626 10.3989 25.6703 10.2083 25.5635C10.0329 25.4568 9.87283 25.0604 9.81183 24.5648C9.74321 24.0236 9.93383 23.1544 10.2387 22.6055C11.1384 20.9969 12.7851 20.0668 15.1637 19.8152C15.7279 19.7542 16.2159 19.6856 16.254 19.6627L16.2851 19.6514Z" fill="#FF2626"/>
<path d="M15.072 20.3193C15.0788 20.325 15.0959 20.3281 15.0927 20.3365C15.0804 20.368 14.9636 20.4352 14.9415 20.4479L14.9394 20.4492C14.8342 20.5101 14.7569 20.5481 14.653 20.601C14.3404 20.7611 13.944 20.9822 13.7686 21.0889C13.0062 21.5768 12.2667 22.7509 12.1371 23.6886C12.038 24.3519 11.8855 24.6568 11.6416 24.6568C11.5425 24.6568 11.4052 24.6035 11.3442 24.5348C10.8487 24.0393 11.329 22.6289 12.2896 21.7369C12.8462 21.2261 13.7229 20.7229 14.4929 20.4714C14.6831 20.4107 14.8726 20.3415 15.072 20.3193Z" fill="#FF2626"/>
<path d="M14.4129 20.9805C14.4151 21.0665 14.2822 21.2021 14.226 21.2706C13.761 21.8348 13.6085 22.1245 13.4255 22.7878C13.3416 23.1232 13.2273 23.4435 13.1892 23.4968C13.0901 23.6112 12.8842 23.6188 12.7622 23.4968C12.6098 23.3443 12.6555 22.9631 12.8918 22.4829C13.1511 21.9568 13.3264 21.7433 13.8448 21.3469C14.0253 21.242 14.2032 21.0231 14.4129 20.9805Z" fill="#FF2626"/>
<path d="M10.9174 25.876C11.0013 25.876 11.1385 25.9446 11.2224 26.0285C11.3062 26.1123 11.3749 26.2495 11.3749 26.3334C11.3749 26.5088 11.1156 26.7909 10.9784 26.7832C10.925 26.7832 10.8259 26.7603 10.7649 26.7375C10.6049 26.6841 10.46 26.4783 10.46 26.3182C10.46 26.1352 10.7268 25.876 10.9174 25.876Z" fill="#FF2626"/>
<path d="M11.6426 26.8799C11.8117 26.9248 11.9059 27.0127 11.8623 27.1946C11.8013 27.3624 11.6412 27.4081 11.4887 27.2937C11.321 27.1718 11.3744 26.9126 11.5726 26.8821L11.6426 26.8799Z" fill="#FF2626"/>
<path d="M12.3436 27.1885L12.404 27.2027C12.5412 27.2485 12.5336 27.4848 12.3964 27.5305C12.3506 27.5458 12.2744 27.5153 12.2286 27.4543C12.1749 27.3842 12.1621 27.2776 12.2447 27.218C12.2726 27.1978 12.3106 27.1983 12.3436 27.1885Z" fill="#FF2626"/>
<path d="M9.38389 28.0264C9.51489 28.2111 9.61049 28.419 9.71294 28.6205C10.8031 30.7933 12.4499 32.0054 14.6226 32.2494C15.5756 32.3485 16.4219 31.9826 16.7192 31.3422C16.9022 30.9305 16.9022 30.7018 16.7116 30.3892C16.5362 30.1071 16.0407 29.8479 15.6824 29.8403C15.3774 29.8403 14.9734 30.0995 14.8743 30.3511C14.7599 30.6484 14.9581 31.0372 15.2859 31.1744C15.5452 31.2812 15.69 31.2507 15.4689 31.1287C15.3012 31.0296 15.2935 30.6255 15.4613 30.3892C15.6443 30.13 16.1245 30.1529 16.4142 30.4425C17.0928 31.1287 16.056 32.1122 15.2021 31.5938C15.0038 31.4718 14.9276 31.4565 14.8133 31.5328C14.4931 31.731 14.0433 31.2583 14.0432 30.717C14.0433 30.5493 14.0127 30.5264 13.7917 30.5264C13.3648 30.5264 13.3419 30.4045 13.7078 30.0309C13.8908 29.8479 14.1042 29.6802 14.1881 29.6497C14.333 29.6039 14.333 29.5963 14.211 29.3752C14.089 29.1541 14.089 29.1389 14.2491 29.0017C14.5769 28.7349 15.4537 28.7196 15.8501 28.9712C15.9568 29.0398 16.0331 29.0474 16.0635 29.0017C16.1322 28.8873 16.46 28.9102 16.704 29.0398C17.047 29.2151 17.3138 29.5887 17.451 30.069C17.5349 30.3739 17.6188 30.5264 17.7103 30.5493C17.9085 30.6026 18.0381 30.9229 17.9771 31.2431C17.9009 31.6624 17.4816 32.1961 17.0165 32.4781C16.1627 32.9966 15.1564 33.0804 13.9289 32.745C13.4029 32.6001 13.1589 32.5925 13.5172 32.7297C13.6163 32.7678 13.8603 32.867 14.0508 32.9508C14.4168 33.1109 15.3469 33.332 15.7967 33.3625C16.0254 33.3854 16.0636 33.4159 16.0864 33.5912L16.1093 33.797L16.3838 33.6064C16.8564 33.2862 17.2681 33.3854 18.2287 34.0715C18.6937 34.4069 18.7166 34.4146 18.8615 34.285C19.0826 34.0867 19.0139 33.7742 18.7318 33.7284C18.5413 33.6979 18.5031 33.6522 18.5031 33.4616C18.5031 33.2558 18.5337 33.2329 18.7471 33.21C19.2274 33.1643 19.6315 33.858 19.4637 34.4222C19.235 35.177 18.1372 35.5048 16.8031 35.2151C16.1245 35.0626 15.568 34.8491 14.6608 34.3688C12.3431 33.1414 10.4219 31.0144 9.59856 28.7348C9.52815 28.5357 9.45017 28.3388 9.39197 28.1355C9.3642 28.0384 9.34814 28.0622 9.38389 28.0264Z" fill="#FF2626"/>
<path d="M9.85938 28.4922C9.93488 28.5364 9.97857 28.632 10.0251 28.7051C10.6274 29.6809 11.588 30.3289 12.7087 30.5271C13.2577 30.6187 13.4635 30.7635 13.7151 31.2133C13.8218 31.4039 13.959 31.6174 14.0276 31.6936C14.1649 31.8537 14.1192 31.8537 13.4711 31.7088C12.0836 31.4039 10.7418 30.3137 10.0328 28.9185C9.98215 28.7795 9.86631 28.6446 9.85938 28.4922Z" fill="#FF2626"/>
<path d="M14.6758 37.3727C16.7495 38.7907 21.5169 39.8199 24.33 39.6445C26.4342 39.5074 27.7456 39.1414 29.9031 38.0588C30.757 37.6318 31.2297 37.4413 31.5041 37.4108L31.8929 37.365L31.7328 37.548C31.4965 37.8072 31.3974 38.0359 31.3973 38.2799C31.3974 38.8898 31.0086 39.5074 30.513 39.6903C30.3301 39.7513 30.2385 39.8428 30.2081 39.98C30.1394 40.3231 30.0556 40.3993 29.5448 40.5671C28.3783 40.9635 25.9005 41.1922 24.3072 41.0473C21.0137 40.75 17.4738 39.6674 14.9808 37.7157L14.9542 37.695C14.8016 37.5759 14.6489 37.4568 14.5019 37.3309C14.4832 37.315 14.465 37.3 14.4482 37.2863L14.4479 37.2861C14.3856 37.2352 14.3428 37.2003 14.3734 37.1875C14.4638 37.2308 14.5473 37.2867 14.6305 37.3424C14.6371 37.3469 14.6437 37.3513 14.6504 37.3557C14.6589 37.3614 14.6673 37.367 14.6758 37.3727Z" fill="#FF2626"/>
<path d="M35.4842 35.1087C35.6748 35.1697 36.1398 35.1774 36.826 35.1392L37.8781 35.0858L38.1068 35.3145C38.3965 35.6043 38.3965 35.711 38.1068 35.711C37.9772 35.711 37.7027 35.7949 37.4969 35.9016C37.2911 36.0083 37.0318 36.0922 36.9251 36.0922C36.7497 36.0922 36.7345 36.1074 36.8184 36.2523C36.9251 36.4658 36.8489 36.8775 36.6583 37.0452C36.5134 37.1748 36.5058 37.1748 36.5058 37.0299C36.5058 36.603 36.2618 36.1989 35.6824 35.6653C35.3622 35.3603 35.1183 35.1011 35.1411 35.0706C35.1541 35.0645 35.1582 35.0622 35.1625 35.0615C35.1691 35.0603 35.1762 35.0627 35.2155 35.0605C35.2597 35.0665 35.2886 35.07 35.3092 35.0726C35.3339 35.0756 35.3465 35.0773 35.3591 35.0795C35.3723 35.0819 35.3854 35.0851 35.4122 35.0915C35.4294 35.0957 35.4521 35.1012 35.4842 35.1087Z" fill="#FF2626"/>
<path d="M38.9097 33.2041C39.0115 33.2217 39.0706 33.2826 39.1274 33.3621C39.318 33.6747 38.7157 34.216 37.8161 34.5285C37.0156 34.8106 35.5518 34.9707 35.2926 34.803C35.224 34.7572 35.3155 34.7192 35.5594 34.681C36.3523 34.5667 36.9165 34.3227 37.7704 33.7509C37.852 33.7017 37.9336 33.6469 38.0161 33.5914C38.2914 33.4062 38.5771 33.2141 38.9097 33.2041Z" fill="#FF2626"/>
<path d="M39.6921 31.4101C39.8522 31.4635 39.8979 31.5321 39.8979 31.7074C39.8979 31.898 39.8141 31.9819 39.2118 32.3859C38.8382 32.6452 38.2359 33.0721 37.8776 33.3389C37.0619 33.9412 36.4748 34.2462 35.8268 34.3834C35.1102 34.5359 35.1025 34.5206 35.7429 34.2385C36.5968 33.865 36.8789 33.6515 37.5421 32.912C37.6695 32.7841 37.7965 32.6405 37.9265 32.4936C38.3514 32.0134 38.8083 31.4969 39.4164 31.3701C39.4802 31.3751 39.5173 31.3769 39.5416 31.3781C39.563 31.3791 39.5746 31.3797 39.5861 31.3815C39.5998 31.3836 39.6133 31.3875 39.643 31.3961H39.6431C39.6559 31.3998 39.6718 31.4044 39.6921 31.4101Z" fill="#FF2626"/>
<path d="M40.6524 30.0231C41.0336 30.1146 41.1022 30.6559 40.7591 30.8388C40.6676 30.8846 40.3245 30.9608 39.9967 30.9913C39.6613 31.0294 39.2725 31.1133 39.12 31.1743C38.9523 31.2429 38.3958 31.7461 37.7325 32.417C36.6651 33.4919 36.2077 33.8503 35.4987 34.1476C35.3386 34.2086 35.209 34.2467 35.209 34.2314C35.209 34.2086 35.3538 34.1094 35.5292 34.0027C35.9942 33.7283 36.688 33.0193 37.1835 32.3178C37.7553 31.5021 38.6092 30.6254 39.1276 30.3128C39.425 30.1344 39.7613 30.0405 40.1036 29.9975C40.1681 29.9894 40.2333 29.989 40.2984 29.9887C40.3126 29.9887 40.3268 29.9886 40.3411 29.9885C40.3457 29.9884 40.3503 29.9884 40.3548 29.9883C40.3686 29.9881 40.3823 29.9878 40.396 29.9873C40.4585 29.9939 40.4938 29.997 40.5166 29.999H40.5168C40.5356 30.0007 40.5461 30.0016 40.5564 30.0031C40.5743 30.0057 40.5919 30.0101 40.6524 30.0231Z" fill="#FF2626"/>
<path d="M14.8058 37.9292C15.4082 38.44 16.2543 38.9889 17.3369 39.5759C19.5173 40.7576 20.8769 41.1769 20.8769 41.459C20.8769 41.642 19.7232 41.6115 19.2124 41.3904C18.0688 40.8949 16.7194 39.9114 15.2556 38.4934C15.1838 38.4224 15.1109 38.3525 15.038 38.2825L15.0379 38.2824C14.8626 38.1142 14.687 37.9458 14.5268 37.7633C14.5024 37.7356 14.4858 37.7215 14.4755 37.7127C14.4672 37.7057 14.463 37.7022 14.4621 37.6979C14.461 37.6926 14.465 37.6861 14.4728 37.6709C14.5768 37.7347 14.6703 37.8142 14.7633 37.8932C14.7775 37.9052 14.7916 37.9172 14.8058 37.9292Z" fill="#FF2626"/>
<path d="M15.6438 39.3018C16.4367 40.1023 17.1075 40.8189 17.1304 40.9028C17.1838 41.0629 17.0542 41.2763 16.9094 41.2763C16.856 41.2763 16.6654 41.1772 16.4748 41.0629C16.2918 40.9409 16.0021 40.6893 15.8268 40.5063C15.2931 39.9193 14.5231 38.6995 14.2715 38.0362L14.2719 38.0254C14.6865 38.3383 15.0588 38.7134 15.4271 39.0844C15.4994 39.1572 15.5715 39.2298 15.6438 39.3018Z" fill="#FF2626"/>
<path d="M13.9214 38.0201C13.9366 38.0049 14.0815 38.2794 14.2568 38.6377C14.4246 38.9884 14.6914 39.4763 14.8362 39.7126C15.2708 40.3835 15.2708 40.7724 14.8438 40.6809C14.5694 40.6275 14.4246 40.4217 14.2416 39.827C14.0662 39.2857 13.8527 38.0888 13.9214 38.0201Z" fill="#FF2626"/>
<path d="M13.2805 39.7515C13.5626 39.7515 13.6541 39.2864 13.3872 39.1873L13.3848 39.1866C13.3785 39.1847 13.3731 39.183 13.3684 39.1815L13.3611 39.1793C13.3463 39.1747 13.3395 39.1726 13.3326 39.1715C13.3267 39.1706 13.3207 39.1703 13.3096 39.17C13.2975 39.1696 13.2792 39.169 13.2483 39.167C13.2457 39.1677 13.2432 39.1683 13.2406 39.1689C13.234 39.1705 13.2274 39.1719 13.2208 39.1732C13.2024 39.1771 13.184 39.1809 13.167 39.1884C13.0001 39.2621 12.9825 39.4578 13.0518 39.6067C13.0976 39.6829 13.1967 39.7515 13.2805 39.7515Z" fill="#FF2626"/>
<path d="M12.8608 38.0742C13.0285 38.0742 13.3563 38.4173 13.3563 38.5926C13.3563 38.7756 13.0438 39.0653 12.8455 39.0653C12.754 39.0653 12.6092 38.9738 12.5253 38.8671C12.4339 38.7527 12.3652 38.6155 12.3652 38.5545C12.3652 38.4097 12.7083 38.0742 12.8608 38.0742Z" fill="#FF2626"/>
<path d="M13.8013 39.918C13.9101 39.9558 13.9522 39.9936 13.9515 40.1095C13.921 40.2848 13.7838 40.3153 13.6618 40.1705C13.5855 40.0866 13.5855 40.0256 13.6465 39.9646C13.6571 39.9572 13.6652 39.9513 13.6718 39.9465L13.672 39.9463C13.6867 39.9356 13.6935 39.9307 13.701 39.9282C13.7075 39.926 13.7147 39.9255 13.7278 39.9248C13.7424 39.9239 13.7644 39.9226 13.8013 39.918Z" fill="#FF2626"/>
<path d="M7.44369 31.6013C7.53113 31.6567 7.56918 31.7348 7.55022 31.8385L7.5354 31.8775C7.48445 31.9791 7.36075 32.0202 7.25909 31.9692C7.15752 31.9183 7.11644 31.7946 7.16738 31.693C7.20575 31.6325 7.2517 31.5935 7.32509 31.5811C7.37686 31.5845 7.38811 31.5828 7.39866 31.5848C7.40716 31.5864 7.41519 31.5904 7.44369 31.6013Z" fill="#FF2626"/>
<path d="M7.55023 29.1455C8.38975 30.8704 9.09544 32.1351 9.96458 33.4235C10.6507 34.4375 11.2073 35.4514 11.1234 35.5353C11.1005 35.5505 11.0167 35.4514 10.9251 35.3065C10.7422 35.0092 10.483 34.872 10.0941 34.872C9.36992 34.872 8.78283 34.4908 8.64559 33.9419C8.59988 33.7589 8.58464 33.3396 8.6075 33.0041C8.63035 32.6306 8.61511 32.318 8.56173 32.2037C8.4855 32.036 8.47788 32.0512 8.51597 32.3256C8.56935 32.745 8.43216 33.0957 8.16531 33.2329C7.85274 33.4006 7.66975 33.3701 7.49441 33.149C7.2047 32.7754 7.34956 32.2799 7.71551 32.3942C7.84512 32.4324 7.86798 32.4095 7.86798 32.2189C7.86798 32.0969 7.76889 31.67 7.64689 31.2735C7.52489 30.8771 7.28213 30.1775 7.13677 29.6504C6.99141 29.1232 6.88433 28.2046 7.04498 27.6309C7.15972 28.0439 7.26947 28.5686 7.55023 29.1455Z" fill="#FF2626"/>
<path fill-rule="evenodd" clip-rule="evenodd" d="M22.2333 2.29492C22.5383 2.29492 22.9195 2.65325 22.9195 2.93534C22.9195 3.14882 22.6831 3.43853 22.5078 3.43853C22.3477 3.43853 22.1571 3.22505 22.1571 3.04206C22.1571 2.91249 22.1418 2.90487 22.0427 2.98106C21.9817 3.03444 21.9284 3.16405 21.9284 3.27839C21.9284 3.7511 22.5078 4.3 23.2549 4.53633C23.5218 4.62023 23.7657 4.76508 23.8953 4.90227C24.3528 5.4207 24.4442 5.49693 24.5815 5.49693C24.7187 5.49693 24.8864 5.64179 25.0084 5.85526C25.0465 5.9315 24.9779 5.93912 24.7111 5.90098C24.4138 5.86288 24.3222 5.88579 24.124 6.0306C23.9411 6.16783 23.7505 6.21359 23.3235 6.24407C22.828 6.27459 22.7289 6.25935 22.5306 6.11445L22.3096 5.94674L22.2257 6.16021C22.0916 6.49568 22.228 6.87297 22.3129 7.2011C23.1612 8.97576 25.0781 9.53311 26.1294 11.1373C26.4877 11.6939 26.6783 12.3724 26.6859 13.0738C26.686 13.7904 26.5259 14.3012 26.1675 14.7205C25.8626 15.0788 25.1383 15.4677 24.5818 15.5668C24.2692 15.6278 24.1549 15.6964 23.9338 15.9708C23.5297 16.4588 23.362 16.596 22.8664 16.8628C22.2489 17.1907 21.8296 17.2364 21.4331 17.0305C20.9147 16.7713 20.6479 16.2529 20.6479 15.5439C20.6479 15.0103 20.7623 14.6443 21.0519 14.2707C21.4408 13.7599 21.639 13.6456 22.1422 13.6532C22.4319 13.6532 22.5462 13.6303 22.47 13.5846C22.2794 13.4626 21.6466 13.5083 21.3416 13.6608C20.5412 14.0725 20.2819 14.7739 20.1905 16.7942C20.1586 17.5238 19.3796 17.3569 18.721 17.2159C18.2785 17.1211 17.8904 17.038 17.82 17.2463C17.4845 18.2375 18.3582 18.679 17.5883 19.0754C17.0775 19.3271 16.7192 19.3957 15.4917 19.4719C13.9975 19.5634 12.9073 19.8073 12.0076 20.2495C10.7192 20.867 9.74339 22.1021 9.43844 23.4896C9.28596 24.1681 9.28596 24.5417 9.43077 25.2278C9.873 27.3168 12.0076 28.5976 13.2503 27.5226C13.5019 27.3092 13.5401 27.2329 13.5705 26.8517C13.6087 26.3943 13.5248 26.158 13.2732 26.0284C13.1283 25.9445 13.1207 25.9521 13.2274 26.158C13.4791 26.6459 12.9988 27.0271 12.3812 26.8365C12.1906 26.7755 11.9848 26.4325 11.9848 26.1656C11.9848 25.9293 12.244 25.5176 12.4346 25.4566C12.5413 25.4261 12.5794 25.3498 12.5718 25.2126C12.5489 24.9534 12.8082 24.8086 13.3037 24.8086C13.967 24.8086 14.5616 25.2584 14.737 25.8911C14.7827 26.0665 14.798 26.3028 14.7751 26.4172C14.7446 26.5925 14.7675 26.623 14.9657 26.6688C15.4308 26.7603 15.3927 27.4769 14.897 27.9801C14.5998 28.2774 13.9899 28.5442 13.5934 28.5442H13.258L13.4181 28.7196C13.6468 28.9636 13.9136 29.6192 13.8221 29.7107C13.784 29.7488 13.5553 29.7869 13.3266 29.7945C12.9378 29.7946 12.8996 29.8098 12.8996 29.9623C12.8996 30.191 12.5947 30.252 12.0915 30.1224C11.1767 29.886 10.4524 29.2304 9.812 28.0868C9.52991 27.5684 9.36982 27.3625 9.27068 27.3625C9.14111 27.3625 9.12582 27.4159 9.14101 27.7818C9.20968 29.9394 12.4651 33.9267 15.1868 35.1998C17.1385 36.1071 19.9084 36.0232 20.4192 35.0245C20.6777 34.5194 20.1476 34.0002 19.5343 33.3994C19.3699 33.2384 19.1996 33.0715 19.0368 32.8974C18.7776 32.6153 18.5107 32.3104 18.4421 32.2037C18.2744 31.9597 18.2744 31.5709 18.4497 31.4184C18.6251 31.2583 18.6937 31.2583 18.8995 31.4032C19.1283 31.5633 19.0444 31.7767 18.7928 31.7081C18.6251 31.67 18.6099 31.6853 18.6556 31.8377C18.7525 32.1464 19.365 32.2821 20.1093 32.447C20.3025 32.4898 20.5046 32.5346 20.7088 32.5849C21.5017 32.7755 21.8601 32.9737 22.0125 33.3167C22.0659 33.4463 22.2032 33.5836 22.3327 33.6293C22.653 33.7513 22.8207 34.1782 22.7139 34.6128C22.6453 34.8644 22.653 34.9864 22.7444 35.2075C22.8969 35.5658 22.8893 35.7335 22.7139 36.0765C22.5233 36.4425 22.348 36.6026 21.8982 36.7856L21.5246 36.9381L22.1803 36.9076C23.057 36.8618 23.8347 36.6102 24.2616 36.2367C24.8715 35.6954 25.0163 35.1084 24.6047 34.7653C24.475 34.6586 24.3302 34.567 24.2844 34.567C24.1777 34.567 23.9566 34.7043 24.0024 34.7347C24.0252 34.75 24.1091 34.7958 24.1929 34.8415C24.4217 34.9635 24.4369 35.3599 24.2158 35.5124C23.6898 35.8783 23.1409 35.3981 23.2705 34.6814C23.3315 34.3765 23.5754 34.1858 23.9871 34.1172C24.1853 34.0791 24.2768 34.0258 24.292 33.919C24.3455 33.6522 24.4674 33.5759 24.8334 33.5759C25.3137 33.5759 25.6491 33.797 25.8473 34.2392C26.0379 34.6738 26.0075 35.2379 25.7635 35.5581C25.55 35.8555 25.5576 35.886 25.8321 35.7487C26.0837 35.6192 26.2209 35.3752 26.4039 34.7043C26.5259 34.2392 26.8613 33.8352 27.151 33.7894C27.2425 33.7742 27.4712 33.7894 27.6618 33.8199C28.3708 33.9267 28.8359 33.8885 29.2323 33.6903C29.4382 33.5836 29.6136 33.4997 29.6212 33.4997C29.6822 33.4997 29.4458 33.9648 29.1713 34.3612C28.63 35.1617 28.0811 35.6496 27.2806 36.0461C26.503 36.4196 26.4496 36.4959 27.1281 36.2367C28.6072 35.6801 29.766 34.6814 30.3759 33.4616C30.6893 32.8348 30.8715 32.1593 30.4445 31.4274C30.1091 30.848 29.2552 30.4516 28.6758 30.5964C28.1269 30.7261 27.7457 31.2902 27.8448 31.8086C27.921 32.2203 28.3937 32.5329 28.6834 32.3728C28.8664 32.2737 28.8359 32.1746 28.63 32.2127C28.226 32.289 28.0964 31.6562 28.4547 31.3436C28.8435 31.0081 29.5373 31.1759 29.7355 31.6562C30.0862 32.51 29.3772 33.2414 28.3403 33.2414C27.3492 33.2338 26.747 32.7235 26.7469 31.6485C26.747 30.7337 27.2349 30.0476 28.1193 29.7121C28.7216 29.4834 29.7508 29.5291 30.2921 29.8112C30.78 30.0628 31.1917 30.4974 31.4128 30.9776C31.722 31.6425 31.6564 32.5138 31.3746 33.1948C31.2603 33.4692 31.0544 33.8428 30.9248 34.0334L30.6885 34.3765L31.0468 34.0334C32.2438 32.8974 32.6249 30.9839 31.9388 29.5734C31.8168 29.3218 31.7025 29.0627 31.6796 28.9864C31.6262 28.8263 31.8016 28.59 31.9388 28.6357C32.0608 28.6739 32.6173 27.8886 32.6173 27.6751C32.6173 27.5455 32.6555 27.5608 32.8918 27.7895C33.2348 28.1173 33.3492 28.3308 33.4102 28.7958C33.4483 29.0474 33.5017 29.1541 33.5856 29.1541C33.7076 29.1541 33.7076 29.0398 33.5474 28.2774C33.4331 27.7132 33.5627 27.3702 34.1345 26.7679C34.4242 26.4629 34.7139 26.1122 34.7825 25.975C34.935 25.67 34.9426 25.2507 34.7901 24.961C34.6682 24.7323 34.5462 24.6409 34.6224 24.839C34.6682 24.9534 34.4547 25.1898 34.3174 25.1898C34.1878 25.1898 33.9896 24.9229 33.9896 24.7476C33.9896 24.4808 34.2565 24.2749 34.5995 24.2749C35.0417 24.2749 35.4534 24.7019 35.6593 25.3727C36.1091 26.8289 35.8574 28.8873 35.0112 30.6789C34.6758 31.3955 34.7139 31.4946 35.0722 30.8314C35.6211 29.8174 36.1548 28.1783 36.3987 26.7526C36.5893 25.6396 36.5741 23.9623 36.3682 23.1847C36.01 21.8581 35.0341 20.5926 34.1192 20.2419C33.2272 19.914 32.4115 20.097 32.0151 20.7298C31.6872 21.2482 31.6491 21.6066 31.8702 22.0487C32.0837 22.4757 32.5869 22.7883 32.9604 22.712C33.6008 22.59 33.8372 21.7743 33.2882 21.5837C33.1434 21.5303 33.0977 21.6447 33.2272 21.7209C33.3645 21.8048 33.3111 22.125 33.1358 22.2469C32.8613 22.4452 32.5792 22.3994 32.3505 22.125C32.1751 21.9191 32.1523 21.8276 32.1828 21.5303C32.2819 20.6307 33.5475 20.3181 34.3327 21.0043C34.9655 21.5685 34.8283 22.5672 34.0735 22.8797L33.8067 22.9941L34.0506 23.1008C34.6072 23.3295 34.1802 23.8937 33.4407 23.8937C32.9909 23.8937 32.3581 23.6574 32.0761 23.3905C31.8778 23.1999 31.855 23.1999 31.6948 23.3143C31.3137 23.5811 30.8867 23.3829 30.6046 22.8111C30.3531 22.3079 30.3302 21.5837 30.5589 21.0805C30.5707 21.0549 30.5818 21.0309 30.5921 21.0087L30.5922 21.0087C30.6792 20.8211 30.7116 20.7513 30.6893 20.7171C30.6761 20.6969 30.6437 20.6892 30.5921 20.6769C30.5818 20.6744 30.5707 20.6718 30.5589 20.6688C30.0329 20.5316 30.4522 19.5329 31.1993 19.1517C31.5881 18.9459 32.8842 18.8696 33.555 19.0144C34.9502 19.3041 35.9718 20.28 36.5512 21.8734C36.8104 22.5824 36.9019 22.5595 36.6884 21.8276C36.0709 19.7387 34.6072 18.4045 32.7774 18.2673C32.1904 18.2216 32.1218 18.1987 32.1218 18.0614C32.1218 17.9547 32.0074 17.848 31.7482 17.7184C31.4738 17.5812 31.2832 17.3982 31.0697 17.0856C30.8181 16.7121 30.4064 16.369 30.2997 16.4376C30.2845 16.4528 30.2463 16.4376 30.2235 16.4147C30.193 16.3918 30.3835 16.3232 30.6351 16.2698C31.1841 16.1555 32.2057 16.2089 32.6783 16.3766C33.1662 16.5519 32.9985 16.4071 32.3581 16.0869C31.6339 15.7362 31.1231 15.6295 30.4369 15.6829C29.3086 15.7667 28.5539 16.3538 28.3937 17.261C28.3022 17.7565 28.7901 18.2521 29.2399 18.1377C29.4534 18.0844 29.4687 17.9471 29.2704 17.9471C29.1103 17.9471 28.8816 17.6803 28.8816 17.4897C28.8816 17.4287 28.9655 17.2762 29.0722 17.1618C29.644 16.5519 30.5132 17.4363 30.1319 18.2292C29.7127 19.0831 28.2793 19.0221 27.8524 18.1224C27.3721 17.1085 27.9591 15.8887 29.1561 15.4312C29.766 15.1949 30.8029 15.1416 31.4738 15.3093C32.6631 15.6142 33.982 16.4681 34.813 17.4592L35.0646 17.7565L34.935 17.4897C34.752 17.1085 34.0659 16.4605 33.1815 15.8353C32.7622 15.5304 32.2514 15.1416 32.0608 14.9662C31.3289 14.3258 30.6961 13.3195 30.5894 12.6409C30.5055 12.0615 30.8257 11.3449 31.2832 11.078C31.7025 10.8341 31.8854 10.8265 32.1447 11.0476C32.4268 11.2839 32.4496 11.4592 32.2361 11.6575C32.0379 11.8404 31.7177 11.7566 31.6567 11.4974L31.611 11.3068L31.428 11.4745C31.2069 11.6803 31.1993 11.8099 31.3975 12.1377C31.6339 12.519 31.9388 12.6105 33.212 12.6638C34.4852 12.7096 34.8359 12.8163 35.1561 13.2356C35.5754 13.7845 35.6821 14.3029 35.5525 15.2254C35.5068 15.5838 35.5144 15.66 35.6059 15.66C35.6669 15.66 35.7736 15.599 35.8422 15.5228C36.0557 15.2864 36.0023 14.7375 35.6593 13.7235C35.2628 12.5723 35.1866 11.8709 35.4305 11.6269C35.6516 11.4059 35.949 11.4135 36.0633 11.6498C36.1701 11.9014 36.0862 12.1073 35.8956 12.0539C35.644 11.9853 35.7202 12.1149 36.2768 12.6714C36.5741 12.9611 36.8104 13.2585 36.8104 13.3195C36.8104 13.4109 36.8714 13.4262 37.1078 13.3957C37.3746 13.3576 37.4203 13.3805 37.6033 13.6168C37.8778 13.9903 37.9464 14.4249 37.832 15.2025C37.71 15.9878 37.7024 16.4986 37.8015 16.6511C37.8625 16.7502 37.8778 16.7502 37.8778 16.6435C37.8778 16.5748 37.9464 16.4605 38.0378 16.3766C38.1598 16.2623 38.2208 16.2546 38.3352 16.3308C38.5334 16.4528 38.541 16.4452 38.5868 16.2698C38.6096 16.186 38.8003 16.0107 39.0137 15.881C39.2272 15.7439 39.4025 15.5914 39.4025 15.538C39.4025 15.3017 39.555 15.4541 39.6693 15.8124C39.8219 16.2775 39.8447 17.1619 39.7075 17.4211C39.6541 17.5202 39.4788 17.7794 39.3186 17.9852C38.9222 18.5189 38.6554 19.0907 38.48 19.7616C38.3428 20.3181 38.2895 21.1644 38.3809 21.4083C38.4877 21.6828 38.5639 21.4998 38.5639 20.9814C38.5639 20.0742 38.8231 19.2355 39.1433 19.1135C39.2043 19.0907 39.3415 19.1517 39.4483 19.2431C39.5474 19.3423 39.6313 19.3804 39.6313 19.3346C39.6313 19.2889 39.7685 19.2051 39.9438 19.1593C40.2945 19.0526 40.3326 19.0754 40.4851 19.5786C40.5766 19.8683 40.5537 20.0056 40.2792 20.6383C40.2669 20.6683 40.2285 20.7414 40.2108 20.7685C40.1482 20.7527 40.0537 21.0693 40.1147 21.0903L39.3208 23.4074C39.2783 23.5213 39.2392 23.6381 39.203 23.7565C38.9938 24.4417 38.8846 25.1786 38.8083 25.6937L38.8031 25.7289L38.799 25.7569C38.7968 25.7713 38.7947 25.7856 38.7926 25.7997C38.5563 27.4159 38.0074 28.9254 37.3136 29.8784C37.062 30.2138 37.001 30.3282 37.1001 30.2672C37.1459 30.2444 37.3746 29.9623 37.6109 29.6497C38.3809 28.6281 38.8765 27.454 38.9832 26.4095C39.09 25.4261 39.4712 23.909 39.6541 23.7565C39.7304 23.6879 39.7456 23.726 39.7227 23.9242C39.6999 24.0995 39.7761 24.3206 39.9743 24.7018C40.2412 25.1898 40.2564 25.2584 40.2183 25.7463C40.1878 26.2114 40.1954 26.2571 40.3174 26.219C40.4012 26.1885 40.5004 26.2266 40.5613 26.3105C40.6833 26.4782 41.4457 26.5087 41.6287 26.3562C41.8117 26.2037 41.8345 26.3181 41.7125 26.7374C41.4762 27.5608 40.9959 28.1401 40.3631 28.3841L39.9743 28.5366H40.4165C40.8206 28.5442 40.8892 28.5671 41.1255 28.8034C41.4381 29.116 41.4381 29.1618 41.2018 29.4362C41.0417 29.6116 40.9883 29.6345 40.8739 29.5658C40.7824 29.5048 40.7443 29.3981 40.752 29.2304C40.7596 28.994 40.7596 28.9864 40.4851 29.0398C39.5474 29.2075 38.6325 29.9775 37.5347 31.5175C36.78 32.5772 35.9871 33.3472 34.874 34.1096C34.5309 34.3383 34.5157 34.3688 34.6529 34.4222C34.935 34.5289 34.996 34.9406 34.7673 35.1998C34.7063 35.2685 34.6682 35.3447 34.6834 35.3523C34.6928 35.3618 34.7636 35.4033 34.8615 35.4608L34.8618 35.461L34.8627 35.4615C34.9226 35.4967 34.9925 35.5378 35.0646 35.581C35.4915 35.825 35.7812 36.1528 36.0175 36.6636C36.3378 37.3498 36.2158 38.1502 35.7888 38.1502C35.6287 38.1502 35.6059 38.1884 35.5677 38.6915C35.5144 39.3396 35.2781 39.8656 34.9731 40.0181C34.9588 40.0258 34.9454 40.0331 34.9327 40.0401C34.8232 40.0999 34.7714 40.1282 34.726 40.1203C34.6855 40.1132 34.6499 40.0772 34.5827 40.0092C34.5715 39.9978 34.5593 39.9855 34.5462 39.9724C34.4165 39.8427 34.3632 39.8275 34.2336 39.8961C34.1497 39.9418 33.86 39.98 33.5932 39.98C32.8232 39.9724 32.2819 39.6522 31.9998 39.0346C31.7253 38.4323 31.8626 37.6471 32.2971 37.3116C32.7546 36.9457 33.6084 37.2583 33.6084 37.7995C33.6084 38.3408 33.0977 38.5848 32.785 38.1884C32.6326 37.9978 32.625 37.9978 32.5792 38.1502C32.5259 38.3256 32.6859 38.6382 32.9528 38.8517C33.1739 39.0346 33.7304 39.027 34.0506 38.8364C34.7444 38.4095 34.5995 37.1973 33.799 36.7017C33.4636 36.4959 32.7546 36.4196 32.2819 36.5416C32.0913 36.5874 31.1841 36.9838 30.2768 37.4183C27.6009 38.6839 26.1218 39.0956 23.888 39.1947C21.3188 39.3015 18.1143 38.7678 15.6899 37.5861C15.141 37.3192 14.4549 36.9457 14.1652 36.7474C13.8755 36.5569 13.6315 36.3968 13.6163 36.3968C13.6087 36.3968 13.6468 36.4882 13.7078 36.6102C13.906 36.9991 13.7764 37.5861 13.4409 37.769C13.2351 37.8758 13.2046 37.8682 13.2046 37.6928C13.2046 37.6166 13.1283 37.5022 13.0369 37.4565C12.9378 37.4031 12.8234 37.3116 12.77 37.243C12.6862 37.1363 12.6785 37.1515 12.6709 37.3269C12.6709 37.6242 12.4498 38.1426 12.2821 38.2265C12.0763 38.3408 11.9924 38.318 11.7866 38.0969C11.6265 37.9215 11.5807 37.9063 11.4054 37.9825C11.0162 38.1565 10.5952 38.0717 10.2381 37.8653L10.0126 37.7108C10.0002 37.7014 9.99055 37.6942 9.98284 37.6884C9.96581 37.6756 9.95801 37.6698 9.95062 37.6636C9.94438 37.6583 9.93836 37.6528 9.92735 37.6426L9.92725 37.6425L9.92712 37.6424C9.91491 37.6312 9.89664 37.6143 9.86534 37.586C9.68643 37.4257 9.59022 37.2948 9.4897 37.0796L9.43389 36.9107C9.4232 36.8544 9.41572 36.818 9.41044 36.7923C9.40429 36.7621 9.40108 36.7465 9.39924 36.7308C9.39722 36.7141 9.39671 36.6972 9.3957 36.6623C9.39506 36.6407 9.39419 36.612 9.39268 36.5721C9.39268 35.6573 10.3152 35.1007 10.8488 35.6954C11.1462 36.0308 11.1386 36.3892 10.8336 36.5569C10.6582 36.6483 10.3838 36.5264 10.3838 36.351C10.3838 36.2901 10.3533 36.2595 10.3075 36.2824C10.2694 36.3053 10.2313 36.4425 10.2313 36.5873C10.2313 37.0601 10.8565 37.2583 11.2605 36.9152C11.9009 36.351 11.6646 35.3294 10.4981 33.614C9.38506 31.9902 9.16392 31.6395 8.87421 31.0754C6.87799 27.1882 6.60884 24.6934 6.72359 21.6066C6.81571 19.1285 7.95174 17.2305 8.87421 15.6829C9.79667 14.1352 11.7984 11.9368 13.3189 11.1533C15.4784 10.0406 16.8313 9.7061 19.085 9.98291C20.2354 10.1242 20.93 10.6342 21.4789 11.0382C22.2642 11.6176 22.4166 11.6482 22.7902 11.3203C22.9732 11.1602 23.0342 11.023 23.0646 10.7561C23.1938 9.55706 22.1352 9.21921 21.6212 8.31762C21.4397 8.02924 21.3167 7.71089 21.207 7.39006C20.976 6.46874 20.9206 5.26524 21.8826 4.72694L22.1952 4.55156L21.8293 4.49823C21.1965 4.39914 20.4799 3.85019 20.4799 3.46138C20.4799 3.25553 20.7543 3.38515 20.9754 3.68248C21.2498 4.05605 21.5091 4.25428 21.814 4.32285C22.0199 4.36861 22.0046 4.34576 21.692 4.1399C20.922 3.63672 20.6476 2.49316 21.3337 2.63039C21.4633 2.65325 21.5625 2.63039 21.6006 2.56939C21.692 2.41692 21.9665 2.29492 22.2333 2.29492ZM26.442 36.473C26.3886 36.473 26.3658 36.4501 26.3886 36.4196C26.3907 36.4186 26.3924 36.4177 26.394 36.4168C26.3957 36.4159 26.3971 36.4151 26.3984 36.4144L26.4014 36.4127C26.4057 36.4104 26.4079 36.4092 26.4101 36.4085C26.4124 36.4078 26.4147 36.4076 26.4193 36.4073H26.4194L26.4225 36.4071L26.4246 36.4069C26.4275 36.4066 26.4311 36.4063 26.4355 36.4058L26.4701 36.4068L26.4954 36.4196C26.5183 36.4501 26.4954 36.473 26.442 36.473ZM12.9454 13.7693C13.5932 13.3859 14.3931 13.1052 15.1561 13.1532C16.1722 13.2172 17.0985 13.7904 17.4739 14.7832C17.9008 15.942 17.3367 17.3067 16.2694 17.6879C15.9263 17.8099 15.1792 17.8252 14.7827 17.7108C14.211 17.5507 13.7078 16.9256 13.6163 16.247C13.5019 15.4389 14.3177 14.6308 14.7522 15.1111C14.9276 15.3017 14.9199 15.3169 14.5998 15.3169C14.3634 15.3169 14.2948 15.355 14.2109 15.5228C14.0813 15.8049 14.1881 16.003 14.5388 16.1174C15.1029 16.3004 15.7205 15.7515 15.7205 15.0653C15.7205 14.6003 15.3088 14.2114 14.8132 14.2114C14.6608 14.2114 14.5845 14.1657 14.554 14.059C14.5311 13.9827 14.4244 13.8913 14.3177 13.8607C14.0051 13.7845 13.5858 14.0513 13.3189 14.4935C13.1131 14.8366 13.0674 14.8671 12.9149 14.7985C12.6785 14.6918 12.4041 14.829 12.244 15.1416C12.0458 15.5151 12.0686 16.3309 12.2821 16.6892C12.4804 17.0246 12.4804 17.0246 12.2974 16.9789C12.2211 16.956 12.0839 16.9789 11.9924 17.0246C11.5807 17.2457 12.0458 17.9624 12.709 18.1301C12.9149 18.1834 13.0979 18.2673 13.1131 18.3131C13.1665 18.4732 12.7395 18.5037 12.3278 18.3741C11.5731 18.1377 10.8717 18.2902 10.3761 18.8086C10.0483 19.1441 9.99495 19.3575 10.2313 19.4338C10.4448 19.5024 10.4219 19.5634 10.0712 19.7769C9.55277 20.097 9.08768 20.9662 8.9733 21.7972C8.95044 22.0106 8.91235 22.2927 8.88944 22.4299C8.86659 22.5595 8.82087 22.6739 8.79035 22.6739C8.6074 22.6739 8.57688 21.3931 8.74459 20.4478C9.17916 17.9547 11.0699 14.951 12.9454 13.7693Z" fill="#FF2626"/>
<path d="M40.2105 20.7682C40.1479 20.7523 40.0534 21.0689 40.1145 21.09C40.1145 21.09 40.173 20.8938 40.2105 20.7682Z" fill="#FF2626"/>
<path d="M40.6202 24.9502C40.7422 24.7538 41.3823 24.6197 41.5875 24.7473C41.8017 24.8804 41.9134 25.457 41.7691 25.689C41.7026 25.7961 41.4901 25.8991 41.3042 25.9196C41.1038 25.9435 40.8933 25.924 40.8219 25.8796C40.6523 25.7742 40.5093 25.1286 40.6202 24.9502Z" fill="#FF2626"/>
<path d="M40.4596 23.8591C40.5377 23.7335 40.9473 23.6476 41.0786 23.7293C41.2157 23.8145 41.2872 24.1835 41.1949 24.3319C41.1523 24.4005 41.0163 24.4663 40.8974 24.4795C40.7691 24.4947 40.6344 24.4823 40.5887 24.4539C40.4802 24.3864 40.3886 23.9733 40.4596 23.8591Z" fill="#FF2626"/>
<path d="M40.1872 23.0854C40.235 23.0083 40.5008 22.9649 40.5888 23.0196C40.6807 23.0767 40.7369 23.3106 40.6804 23.4015C40.6543 23.4435 40.567 23.4815 40.4895 23.4867C40.406 23.493 40.3176 23.4817 40.2869 23.4626C40.2142 23.4174 40.1437 23.1553 40.1872 23.0854Z" fill="#FF2626"/>
<path d="M18.248 9.56887C16.4604 9.4482 15.2219 9.96529 13.7466 10.4539C12.5849 10.8406 11.4991 11.7331 11.441 11.6296C11.3651 11.3972 11.5621 10.5769 12.2652 10.1434C12.4609 9.44614 12.9866 8.98394 13.5521 9.00014C13.7406 9.00556 14.1485 9.10419 14.4653 9.21683C14.8188 9.33979 15.1238 9.4096 15.2484 9.38908C15.4304 9.36099 15.4178 9.34957 15.1433 9.31207C14.7252 9.25015 14.4246 9.02332 14.3646 8.72929C14.2875 8.38304 14.3664 8.21509 14.6266 8.10604C15.0646 7.92805 15.5025 8.20142 15.2935 8.52284C15.2218 8.63731 15.2376 8.66554 15.4212 8.71704C15.5386 8.74999 15.9764 8.76996 16.3911 8.75963C16.8057 8.74926 17.5798 8.78442 18.1037 8.83638C20.5665 9.1466 21.4086 10.2309 21.6692 10.4307C21.8387 10.5777 21.7401 10.5258 21.6464 10.4996C20.7967 9.8578 19.6209 9.66149 18.248 9.56887Z" fill="#FF2626"/>
<path d="M17.0719 8.52406C16.9949 8.59327 16.9094 8.60883 16.8147 8.56256L16.7812 8.53773C16.6971 8.46122 16.691 8.33105 16.7675 8.24692C16.844 8.16293 16.9742 8.15678 17.0583 8.23329C17.1061 8.28658 17.1313 8.34129 17.1234 8.41532C17.1061 8.4643 17.1046 8.47554 17.0999 8.48518C17.0961 8.49289 17.0901 8.49959 17.0719 8.52406Z" fill="#FF2626"/>
<path fill-rule="evenodd" clip-rule="evenodd" d="M23.6934 19.6445C23.2321 19.6445 22.8582 20.022 22.8582 20.4877L22.8598 20.5204L22.8301 20.5231C22.6411 20.5397 22.3864 20.548 22.066 20.548C21.6552 20.548 21.3265 20.5355 21.0801 20.5107L20.2051 20.4236C20.1969 20.4236 20.1804 20.4194 20.1558 20.4111H20.1064C19.8436 20.4111 19.632 20.4962 19.4718 20.6662C19.3116 20.8362 19.2314 21.0581 19.2314 21.3318C19.2314 21.5641 19.2951 21.759 19.4226 21.9166C19.5499 22.0742 19.708 22.1529 19.897 22.1529C19.9709 22.1529 20.0716 22.1385 20.1989 22.1095C20.3263 22.0804 20.4228 22.0658 20.4885 22.0658C20.7103 22.0658 20.8213 22.3437 20.8213 22.8994V26.3459C20.8213 26.9099 20.7103 27.1919 20.4885 27.1919C20.4228 27.1919 20.3263 27.1774 20.1989 27.1484C20.0716 27.1193 19.9709 27.1048 19.897 27.1048C19.708 27.1048 19.5499 27.1836 19.4226 27.3412C19.2951 27.4988 19.2314 27.6937 19.2314 27.9259C19.2314 28.1997 19.3116 28.4195 19.4718 28.5854C19.632 28.7513 19.8436 28.8342 20.1064 28.8342H20.2051C20.3694 28.8342 20.6405 28.8135 21.0184 28.772C21.3964 28.7305 21.684 28.7098 21.8812 28.7098C22.1522 28.7098 22.4029 28.7181 22.6329 28.7347L23.1421 28.7709C23.2299 29.2058 23.5138 29.499 23.9699 29.5127C24.3664 29.4925 24.7162 29.2359 24.7865 28.827C25.5249 28.7849 26.2769 28.6462 26.8785 28.181C27.4413 27.7455 27.7227 27.1338 27.7227 26.3459C27.7227 25.9975 27.6446 25.6616 27.4885 25.3381C27.2831 24.915 26.86 24.575 26.2191 24.3179L25.911 24.1934C26.9216 23.9528 27.4269 23.3764 27.4269 22.464C27.4269 22.0244 27.2913 21.6325 27.0202 21.2883C26.7491 20.9441 26.3958 20.7139 25.9604 20.5978C25.4906 20.4821 25.0097 20.4196 24.5254 20.424C24.5035 19.9834 24.1173 19.6523 23.6934 19.6445ZM25.1223 22.7875C25.1223 22.2318 24.6951 21.9539 23.8406 21.9539C23.5285 21.9539 23.3149 21.9788 23.1998 22.0286C23.0273 22.1115 22.941 22.2898 22.941 22.5636V23.2976C22.941 23.4635 22.9739 23.5672 23.0396 23.6087C23.0807 23.6418 23.1834 23.6584 23.3477 23.6584H23.7297C24.157 23.6584 24.4959 23.5796 24.7464 23.422C24.997 23.2644 25.1223 23.0529 25.1223 22.7875ZM24.9622 25.4376C24.6581 25.2303 24.2555 25.1266 23.7544 25.1266H23.3847C23.2039 25.1266 23.0848 25.1535 23.0273 25.2074C22.9698 25.2614 22.941 25.363 22.941 25.5122V26.4205C22.941 26.7357 23.0314 26.9535 23.2122 27.0737C23.3929 27.194 23.7215 27.2541 24.1981 27.2541C24.5595 27.2541 24.8533 27.1629 25.0792 26.9804C25.3051 26.7979 25.4181 26.5574 25.4181 26.2588C25.4181 25.9187 25.2661 25.6449 24.9622 25.4376Z" fill="#FF2626"/>
</svg>
